<svg xmlns="http://www.w3.org/2000/svg" version="1" width="693.333" height="693.333" viewBox="0 0 520.000000 520.000000"><script xmlns=""/><path d="M241 .6c-54.6 4.9-102.6 23.9-144 57C86.1 66.4 66.4 86.1 57.6 97 6 161.5-12.3 246.7 8.5 325.7c4.8 18.4 9.2 29.9 18.4 48.8 27.8 56.6 75.1 101.1 133.4 125.4C261.5 542 379.1 516 452.2 435.4c46.2-50.9 70-115.9 67.5-184.4-2.6-68.5-30-130.3-78.9-177.6-40.4-39-88.8-62.7-145-70.9C285.8 1 250.1-.2 241 .6zm-55 166.3c24.4 8.2 43.9 26.6 53.3 50.1 5.3 13.5 5.7 17.9 5.7 68.4 0 41.4-.2 46.5-1.6 47-.9.3-10.5.6-21.4.6-18.7 0-20-.1-21-1.9-.5-1.1-1-3.2-1-4.7 0-3 .5-3-10.5 1.1-47.2 17.9-99.4-9.5-112.6-59-1.6-6.1-2.1-10.9-2.1-20.5 0-15.6 2.1-24.4 9.3-38.9 11.1-22 33-39.1 57.4-44.5 5-1.1 11-1.5 21-1.2 12.6.2 14.9.6 23.5 3.5zm187.5-1.5c9.1 2.5 25.2 10.8 32.6 16.9 15.5 12.8 26.7 32.6 29.9 52.7.6 4 1 32.7 1 73.7 0 65.4-.1 67.3-1.9 68.3-1.2.6-9.8 1-21 1-15.9 0-19.2-.3-20.5-1.6-1.4-1.3-1.6-5.2-1.6-27.5V323l-3.9 2c-13.5 6.8-36.4 9.7-52 6.6-17.3-3.5-30.6-10.3-42.8-21.9-22.3-21.2-31.9-52.8-24.7-81.6 7.8-30.9 31.1-54.6 61.8-62.7 8-2.1 10.8-2.4 23.1-2 8.7.2 16.3 1 20 2zM434.1 388c4.3 2.4 2.4 5.1-17.4 24.8-10.6 10.6-19.7 19.2-20.1 19.2-.4 0-1.6-.5-2.7-1-1.8-1-1.9-2.3-1.9-21.5 0-18.4.2-20.5 1.8-21.4 2.3-1.4 37.7-1.4 40.3-.1z"/><path d="M150.5 208.3c-8.2 2.2-14.8 6.2-20.7 12.6-7.8 8.3-10.2 14.7-10.2 27.2-.1 9 .1 9.9 3.7 17.1 4.3 8.8 10.7 15.2 19.5 19.5 5.2 2.6 6.7 2.8 16.7 2.8 10.4 0 11.4-.2 17.6-3.2 8-4 16-12 19.7-20 3.7-7.9 4.3-21.2 1.4-29.5-5.6-15.8-19.1-26.1-36-27.3-3.9-.3-8.8.1-11.7.8zM343.3 208c-11.8 2.4-22.8 11.1-28.5 22.7-3.1 6.3-3.3 7.4-3.3 16.8 0 9.7.2 10.4 3.8 17.7 4.3 8.8 10.7 15.2 19.5 19.5 5.2 2.6 6.7 2.8 16.7 2.8 10.4 0 11.4-.2 17.6-3.2 8-4 15.9-12 19.7-20 2.4-5.2 2.7-7 2.7-16.3 0-9.7-.2-11-3.1-17.1-8.1-17-26.7-26.5-45.1-22.9z"/><script xmlns=""/></svg>