<svg version="1.1" id="Layer_1" xmlns="http://www.w3.org/2000/svg" xmlns:xlink="http://www.w3.org/1999/xlink" x="0px" y="0px"
	 width="100%" viewBox="0 0 939 746" enable-background="new 0 0 939 746" xml:space="preserve">
<path fill="#FEFEFE" opacity="1.000000" stroke="none" 
	d="
M218.000000,747.000000 
	C205.979111,747.000000 193.958206,747.000000 181.491898,746.766907 
	C181.046478,746.533813 181.102219,746.068604 181.438904,745.856079 
	C182.227951,743.918457 183.045074,742.198975 183.071320,740.467468 
	C183.205093,731.639099 183.348206,722.800842 183.067596,713.979370 
	C182.843536,706.935669 180.438614,700.391418 175.101685,695.684937 
	C170.322189,691.470032 164.815445,688.079773 159.608017,684.310059 
	C160.480728,683.906677 161.618652,683.305969 162.809631,682.841248 
	C194.907959,670.316711 191.677826,626.805908 171.082123,612.308533 
	C160.631836,604.952515 148.970612,601.139832 136.469116,601.042786 
	C93.486206,600.709106 50.499222,600.841309 7.514499,600.995117 
	C5.633044,601.001831 3.758615,602.972778 1.661779,603.988281 
	C1.442644,603.947693 1.000000,604.000000 1.000000,604.000000 
	C1.000000,403.098480 1.000000,202.196960 1.000000,1.000000 
	C97.354027,1.000000 193.708359,1.000000 290.440308,1.348495 
	C280.563110,5.367445 273.884949,12.007094 273.008514,23.358471 
	C272.272614,32.889122 276.774323,39.917370 284.070251,45.472980 
	C283.679749,46.960346 283.246063,48.218227 283.026611,49.512436 
	C281.694122,57.370495 280.516815,65.256508 279.067627,73.092491 
	C278.290283,77.295601 275.986603,80.704834 271.482422,81.287605 
	C267.296478,81.829216 264.636627,79.005882 263.032837,75.509438 
	C261.397369,71.943977 260.203949,68.175766 258.885254,64.677467 
	C259.698608,63.935654 260.037048,63.569439 260.430267,63.276756 
	C269.950073,56.191048 273.437012,45.552197 269.642609,35.140484 
	C266.072052,25.342999 256.619629,19.291996 245.753677,19.847897 
	C235.664322,20.364069 226.614182,27.862061 224.193512,37.710384 
	C221.556274,48.439636 226.261734,58.660130 236.474045,64.695488 
	C237.619980,65.372719 238.867065,66.548157 239.245605,67.751099 
	C243.081268,79.940331 246.886139,92.143112 250.413361,104.424316 
	C253.138336,113.912224 252.024918,122.787392 247.240494,131.810684 
	C235.625534,153.716202 229.422012,177.106461 229.774460,202.152649 
	C230.310226,240.226639 251.568909,269.095551 286.485260,278.683319 
	C300.804626,282.615326 315.423981,282.695190 330.088715,282.530029 
	C336.530457,282.457489 342.973694,282.517822 349.822327,282.517822 
	C349.822327,297.256683 349.884918,311.390350 349.748840,325.522095 
	C349.730347,327.443909 349.266815,330.203857 348.003357,331.021851 
	C346.860718,331.761627 344.082001,330.814819 342.469452,329.860352 
	C322.736633,318.180389 303.272278,306.034729 283.354858,294.682648 
	C267.381287,285.578369 250.207367,282.790009 232.410980,288.996368 
	C195.430679,301.893036 183.516907,346.659637 209.626419,374.349335 
	C217.420441,382.615051 227.101746,388.005493 237.599854,392.105560 
	C246.919479,395.745361 255.103180,400.917847 260.402008,409.799927 
	C266.725708,420.399933 265.122986,433.152588 256.325012,441.807770 
	C243.123703,454.794678 219.816879,455.712128 204.740891,442.808563 
	C196.844910,436.050323 190.257172,427.721252 183.405029,419.818604 
	C181.887512,418.068451 181.045135,415.111267 181.088593,412.731689 
	C181.343994,398.748138 170.905334,387.595276 157.041183,387.444733 
	C143.989395,387.303040 133.297302,398.182068 133.495346,411.402222 
	C133.701508,425.164795 144.852112,437.128967 158.302277,434.433929 
	C168.356079,432.419403 171.793259,437.361938 176.375565,443.201202 
	C177.607101,444.770569 179.305115,446.056458 180.212692,447.776581 
	C181.354187,449.940002 183.237808,453.354279 182.402618,454.541687 
	C181.078278,456.424408 177.691727,457.970154 175.305878,457.805115 
	C163.246689,456.970917 151.228958,455.537598 140.898529,454.487457 
	C136.171616,449.376984 132.828506,444.141388 128.098694,440.981323 
	C117.764824,434.077179 103.720207,437.427094 96.695190,447.479370 
	C89.560234,457.688843 91.312279,471.196716 100.839775,479.433167 
	C110.049614,487.395081 124.080063,486.670837 133.027786,477.828857 
	C134.144043,476.725800 135.573669,474.996338 136.770874,475.065552 
	C148.041672,475.717163 159.312469,476.522095 170.533691,477.739655 
	C172.604980,477.964386 174.453659,480.240967 176.405090,481.570526 
	C174.843140,483.386169 173.634918,485.997040 171.656723,486.876953 
	C163.955490,490.302643 156.089066,493.414368 148.101456,496.099640 
	C146.029099,496.796356 142.967621,496.132690 140.919388,495.043182 
	C132.437866,490.531616 124.038811,490.117249 115.800240,495.103394 
	C107.679520,500.018219 103.961044,507.631531 104.590218,517.008728 
	C105.385391,528.860046 114.658470,538.108643 126.029640,538.965942 
	C138.301682,539.891174 148.711151,532.428955 151.239944,520.311829 
	C151.969315,516.816895 153.402985,515.566650 156.682236,514.577087 
	C163.176605,512.617371 169.399368,509.775574 175.825256,507.562195 
	C178.428268,506.665619 181.292847,505.928223 183.996445,506.050049 
	C189.446686,506.295593 192.234695,510.807831 190.156982,515.881897 
	C189.045502,518.596313 187.262009,521.075806 185.542984,523.491394 
	C183.200195,526.783264 180.625961,528.983582 176.120697,526.279114 
	C174.146774,525.094238 171.294312,525.065918 168.836395,525.045715 
	C155.907043,524.939087 145.306396,535.472046 145.155716,548.392517 
	C145.001724,561.595337 155.530212,572.424194 168.632202,572.538696 
	C181.660858,572.652588 192.135422,562.438721 192.537064,549.373596 
	C192.594818,547.494934 192.681885,545.086975 193.790283,543.855103 
	C202.357880,534.333191 210.983261,524.845703 219.990845,515.743469 
	C226.298981,509.369049 233.683212,504.969666 243.259399,504.758728 
	C263.238190,504.318634 282.523346,500.216248 300.794739,492.001129 
	C322.006561,482.463928 339.628113,468.858032 349.639069,447.132141 
	C350.922943,444.345886 352.373413,442.944855 355.461273,442.207184 
	C368.864502,439.005371 376.547546,425.419586 372.425293,412.556396 
	C369.401886,403.122070 362.835510,397.413086 353.080475,396.080200 
	C343.102356,394.716797 334.979767,398.475250 329.710876,407.123535 
	C324.463074,415.737183 324.747314,424.609039 330.570831,432.880402 
	C332.321655,435.367188 332.639008,437.428070 330.990662,439.599579 
	C325.799957,446.437805 321.326508,454.163696 314.972748,459.709961 
	C297.617065,474.859924 276.435303,481.901245 253.848160,483.841675 
	C237.227737,485.269501 220.897446,486.249237 208.197556,498.959595 
	C208.047226,499.110077 207.614456,498.978333 208.162918,498.978333 
	C203.827332,495.019745 199.955338,491.484436 196.667068,488.482117 
	C196.667068,484.946899 197.550522,481.471741 196.485977,478.761810 
	C194.160751,472.842743 195.816193,468.704132 200.562897,465.176392 
	C216.659805,472.515656 228.794235,473.833588 245.008652,469.968933 
	C274.334473,462.979279 291.068695,435.319000 281.857666,408.674530 
	C275.819397,391.207703 262.481720,381.071960 246.197144,373.889740 
	C240.460800,371.359772 234.663391,368.532471 229.701019,364.774963 
	C219.647842,357.162598 213.948303,346.926361 216.376221,333.972992 
	C218.892334,320.549011 227.413071,311.898682 240.373245,307.833191 
	C253.201630,303.809052 265.127106,306.988953 276.233734,313.530396 
	C295.277435,324.746490 314.157013,336.243378 332.995209,347.802094 
	C334.440002,348.688599 335.761658,350.944641 335.872803,352.646851 
	C336.611938,363.966797 344.413727,373.286743 355.091248,375.111298 
	C366.682159,377.091919 377.026764,371.563354 381.448669,361.024872 
	C385.807007,350.637909 382.411469,338.723907 372.809753,332.428925 
	C370.258606,330.756348 369.780762,329.052460 369.799164,326.400024 
	C369.890442,313.234650 369.833740,300.068298 369.853760,286.902344 
	C369.855896,285.478760 370.016846,284.055420 370.092865,282.815918 
	C381.981995,282.815918 393.401947,282.815918 404.914856,282.815918 
	C404.914856,344.870331 404.914856,406.623840 404.914856,468.824951 
	C403.049591,468.824951 401.426208,468.824707 399.802826,468.825012 
	C386.636810,468.827515 373.470520,468.779846 360.304901,468.852234 
	C352.863953,468.893127 349.327179,472.809570 349.829865,480.166992 
	C350.220673,485.886414 353.975067,488.835175 360.982971,488.835968 
	C434.312653,488.844238 507.642303,488.842438 580.971985,488.843262 
	C581.805298,488.843262 582.643066,488.897400 583.471130,488.830658 
	C588.606018,488.416901 591.983704,484.870605 592.165710,479.737274 
	C592.420959,472.537659 589.039673,468.886566 581.756958,468.849792 
	C566.963867,468.775055 552.170166,468.827423 537.133301,468.827423 
	C537.133301,406.528442 537.133301,344.640839 537.133301,282.876709 
	C548.999329,282.876709 560.572388,282.876709 572.461121,282.876709 
	C572.461121,298.206970 572.536926,313.181488 572.330383,328.152130 
	C572.312073,329.483734 570.705872,331.145355 569.414429,332.050720 
	C560.403870,338.367371 556.572571,349.117188 559.910889,359.264984 
	C563.607544,370.502045 574.122314,376.935883 586.049561,375.258759 
	C597.035950,373.713959 605.354004,364.344666 606.089844,353.012146 
	C606.198608,351.337738 607.001953,348.985413 608.259949,348.216827 
	C627.825195,336.262756 647.436646,324.378632 667.217102,312.784851 
	C676.955322,307.077057 687.524231,304.693604 698.871826,307.018311 
	C721.747559,311.704742 733.238770,336.643372 721.074097,355.456360 
	C715.525818,364.036865 707.206787,369.041687 698.077209,373.112030 
	C692.186646,375.738342 686.231384,378.506409 680.934631,382.130829 
	C648.154541,404.561920 650.449707,449.133606 685.437683,465.739563 
	C703.967468,474.534241 722.993835,474.598480 742.077087,464.784058 
	C743.750671,467.612518 746.584534,470.286896 746.720032,473.091614 
	C746.966675,478.197296 745.611511,483.380371 744.884094,488.835938 
	C741.637085,491.841064 737.810181,495.382965 733.704102,499.183197 
	C723.224976,488.833954 710.290771,484.896637 695.414490,484.611359 
	C679.705933,484.310150 664.467041,480.457428 650.032471,474.025696 
	C633.888123,466.832184 619.947083,457.019287 611.515320,440.828918 
	C609.985535,437.891541 609.490723,435.647949 611.813049,432.327576 
	C617.197510,424.628845 617.347412,416.061188 612.793762,407.792053 
	C607.597107,398.355042 596.481323,393.766449 586.333191,396.482147 
	C575.683472,399.332031 568.323120,408.846954 568.470886,419.573059 
	C568.621643,430.514465 575.875183,439.848022 586.692932,442.222534 
	C589.915771,442.929932 591.192017,444.529236 592.409973,447.249695 
	C597.463989,458.538757 605.029907,467.979584 614.613770,475.736633 
	C638.447693,495.027435 666.394531,503.214996 696.423035,504.628632 
	C706.870117,505.120422 715.170044,508.724182 722.125854,515.868408 
	C730.252930,524.215759 737.842834,533.086243 745.977600,541.425720 
	C748.357971,543.865967 749.550659,546.071777 749.603577,549.519592 
	C749.765747,560.097778 756.600769,568.722290 766.597961,571.607056 
	C776.201294,574.378174 787.007935,570.545166 792.635376,562.371765 
	C798.405640,553.990906 798.290527,542.979004 792.347046,534.792358 
	C786.272827,526.425659 775.485168,522.561218 765.775757,526.374146 
	C761.350708,528.111877 759.075500,526.893311 756.687683,523.796021 
	C755.571411,522.348145 754.316833,520.970032 753.430908,519.388794 
	C751.541931,516.017456 749.460571,512.373596 752.542297,508.770386 
	C755.809937,504.949677 760.122681,505.182983 764.451904,506.833862 
	C772.809448,510.020905 781.151062,513.249512 789.839844,516.591919 
	C790.151855,518.016235 790.469360,519.981934 791.016968,521.881348 
	C794.393188,533.593018 806.383972,541.138855 818.079285,538.689148 
	C827.924683,536.626953 834.559265,530.614319 836.825256,520.819641 
	C839.123352,510.886383 836.101929,502.331787 827.779114,496.124634 
	C820.010986,490.331268 809.355713,490.153320 800.984558,495.155853 
	C799.418518,496.091675 797.107056,497.186676 795.663330,496.688934 
	C787.220581,493.778259 778.837524,490.634949 770.660095,487.054596 
	C768.561768,486.135925 767.277832,483.357208 765.619751,481.433014 
	C767.770020,480.064392 769.881409,478.627350 772.094116,477.368500 
	C772.765259,476.986664 773.713074,477.051208 774.539978,476.989319 
	C783.498596,476.319092 792.467590,475.766144 801.413147,474.953857 
	C804.837646,474.642914 807.113708,475.721588 809.551270,478.234161 
	C816.711121,485.614563 828.047546,487.000732 837.202026,482.146912 
	C846.220825,477.365021 851.103821,467.110504 849.225891,456.896057 
	C847.326782,446.566406 839.396667,439.061615 828.967285,437.723999 
	C817.399780,436.240417 809.073853,441.633301 802.667419,454.877563 
	C799.294617,455.055298 795.818176,455.126007 792.364380,455.442902 
	C784.085815,456.202484 775.830261,457.409546 767.538696,457.717743 
	C764.812378,457.819092 761.614929,456.170319 759.467957,454.341553 
	C758.816101,453.786316 760.520203,449.630798 761.918213,447.677551 
	C764.816956,443.627472 768.390869,440.065826 771.378784,436.072601 
	C773.197144,433.642456 774.665710,432.909668 777.916382,433.836395 
	C781.618408,434.891815 785.907227,435.181335 789.681396,434.454803 
	C802.353516,432.015381 810.102112,420.210480 808.103943,407.272125 
	C806.210938,395.014923 795.406860,386.439453 783.318909,387.599609 
	C769.923462,388.885315 760.664856,399.246826 760.932495,412.381042 
	C760.976318,414.528961 760.688721,417.185120 759.467590,418.768341 
	C754.799744,424.820770 749.853943,430.681671 744.710388,436.340057 
	C730.574219,451.891357 712.307251,456.042786 694.582214,447.957397 
	C680.771606,441.657532 674.386963,427.587372 679.558167,414.187469 
	C683.737610,403.357635 692.519775,397.391418 702.675110,392.749451 
	C710.043884,389.381165 717.630249,386.043884 724.157776,381.354034 
	C761.091187,354.818298 748.748047,306.275665 714.072083,290.815063 
	C693.223083,281.519379 673.440613,285.688232 654.594482,296.862518 
	C635.867615,307.966187 617.277405,319.300293 598.605774,330.497467 
	C594.173767,333.155243 592.244995,332.040710 592.188416,326.865295 
	C592.137390,322.199402 592.177979,317.532562 592.178040,312.866119 
	C592.178101,302.906464 592.178040,292.946808 592.178040,282.517822 
	C594.808838,282.517822 596.940918,282.576691 599.068970,282.508392 
	C614.200562,282.022919 629.469727,282.634369 644.435547,280.790344 
	C683.785828,275.941864 710.178650,246.170929 712.062317,206.504547 
	C713.353760,179.310303 706.635986,154.108185 694.041870,130.299240 
	C690.447205,123.503448 688.761108,116.501205 690.736023,109.146248 
	C694.177063,96.330978 698.241394,83.684219 701.828552,70.906219 
	C702.765381,67.569038 704.072205,65.265472 707.338867,63.410816 
	C716.370605,58.283154 720.453247,47.053085 717.588623,37.041504 
	C714.629395,26.699223 705.393555,19.792681 694.563477,19.823366 
	C683.847778,19.853724 674.697021,26.551500 671.949036,36.776520 
	C668.786560,48.543663 673.201660,57.552391 683.203430,64.670265 
	C681.717773,68.520721 680.874939,72.812218 678.552612,76.038887 
	C676.782654,78.498123 672.934753,81.199089 670.380127,80.875938 
	C667.735962,80.541458 665.387695,76.818253 663.224426,74.306519 
	C662.477417,73.439140 662.650208,71.762215 662.444824,70.448517 
	C661.140625,62.104000 659.847961,53.757656 658.499451,45.076302 
	C659.468018,44.179325 660.843628,42.991486 662.122437,41.707302 
	C671.174377,32.617554 671.815918,17.821875 662.711792,8.935134 
	C659.049133,5.359916 653.623352,3.590991 649.000000,0.999995 
	C745.952515,1.000000 842.905029,1.000000 940.000000,1.000000 
	C940.000000,201.687546 940.000000,402.375122 939.662231,603.367859 
	C937.375366,602.730286 935.456360,601.055908 933.471924,600.974243 
	C925.820190,600.659424 918.147583,600.857422 910.482727,600.857300 
	C863.993713,600.856323 817.504700,600.849426 771.015686,600.855591 
	C764.588440,600.856445 763.840088,601.617676 763.802368,608.075378 
	C763.780029,611.907532 763.821899,615.740051 763.826538,619.572449 
	C763.836182,627.566589 764.885742,628.634094 773.109985,628.644653 
	C792.105530,628.669006 811.103088,628.803345 830.095093,628.545898 
	C834.837646,628.481628 836.288086,629.708618 836.256653,634.606323 
	C836.037598,668.763489 836.078003,702.922913 836.225220,737.080811 
	C836.237915,740.027222 837.624329,742.967651 838.302246,746.190918 
	C838.154541,746.647278 838.077271,746.823608 838.000000,747.000000 
	C805.645752,747.000000 773.291565,747.000000 740.385437,746.732788 
	C739.791016,746.283936 739.748535,746.102295 740.021362,745.676758 
	C740.904358,742.910767 741.960632,740.389954 741.967102,737.866333 
	C742.073608,696.576294 742.047363,655.285889 742.051514,613.995605 
	C742.051697,611.664795 742.098450,609.333130 742.049744,607.003357 
	C741.962341,602.824951 740.220520,600.586426 735.608032,600.787109 
	C729.625549,601.047485 723.615723,601.042847 717.631958,600.800110 
	C712.871460,600.607056 711.085144,602.599182 711.092773,607.261536 
	C711.165283,651.548340 711.108521,695.835449 711.229858,740.122070 
	C711.235168,742.055237 712.605774,743.984680 713.268677,746.191040 
	C713.131348,746.644226 713.065674,746.822083 713.000000,747.000000 
	C689.312439,747.000000 665.624878,747.000000 641.630737,746.650879 
	C648.980042,743.681702 657.031616,741.852051 664.202637,738.263062 
	C676.084595,732.316650 681.632996,721.769836 682.014221,708.581726 
	C682.405029,695.064697 677.558167,684.177368 665.514771,677.192444 
	C662.334290,675.347839 658.939697,673.872559 655.220581,672.016785 
	C657.101807,671.071045 658.416138,670.386780 659.750183,669.743530 
	C671.299744,664.174072 677.388123,655.004700 678.104858,642.188171 
	C678.882874,628.275696 674.342590,616.915955 662.152710,609.445984 
	C651.929138,603.180908 640.476929,600.954590 628.689880,600.913818 
	C587.025330,600.769653 545.359863,600.901550 503.695129,600.795044 
	C498.963684,600.782959 497.065338,602.625183 497.072083,607.269287 
	C497.136322,651.600830 497.090637,695.932617 497.259766,740.263672 
	C497.267090,742.182983 499.055695,744.095520 500.036469,746.258789 
	C500.058380,746.506348 500.000000,747.000000 500.000000,747.000000 
	C474.979095,747.000000 449.958221,747.000000 424.688232,746.675659 
	C431.800537,744.406738 439.445770,743.176392 446.470245,740.384216 
	C467.889282,731.870483 475.353394,703.488098 461.116333,685.482422 
	C456.046906,678.964172 449.593231,675.087219 441.905884,672.696472 
	C441.917969,671.963196 442.014923,671.542847 442.471680,671.113037 
	C445.242157,669.757874 447.652802,668.412109 450.390442,667.021118 
	C452.181976,665.689575 453.646515,664.403320 455.419739,662.976685 
	C469.109436,647.966187 466.970428,623.290527 451.047028,611.370789 
	C440.019531,603.115967 427.042145,600.927246 413.711853,600.878723 
	C372.558289,600.728882 331.403870,600.814209 290.249786,600.827026 
	C284.252197,600.828918 283.073914,601.862122 283.070740,607.680176 
	C283.046753,651.833069 283.055420,695.986023 283.195465,740.138550 
	C283.201630,742.069824 284.584869,743.996765 285.262329,746.199585 
	C285.131958,746.648926 285.065979,746.824463 285.000000,747.000000 
	C271.979095,747.000000 258.958221,747.000000 245.477524,746.763306 
	C245.017731,746.526672 245.086487,746.057983 245.428009,745.854004 
	C246.223038,743.922607 247.069412,742.195923 247.072708,740.467590 
	C247.157898,695.845398 247.132874,651.223022 247.203064,606.600830 
	C247.209946,602.228577 245.170929,600.705200 241.052277,600.817627 
	C235.561630,600.967407 230.064117,600.871887 224.569550,600.869873 
	C217.151672,600.867065 216.620987,601.340332 216.619598,608.738708 
	C216.611420,652.029236 216.620117,695.319824 216.659210,738.610352 
	C216.660843,740.419128 217.021408,742.227722 217.190140,744.283569 
	C217.304596,744.892029 217.567276,745.058960 218.083817,745.277344 
	C218.363434,745.632690 218.512787,745.742432 218.513382,746.148804 
	C218.243088,746.630310 218.121536,746.815125 218.000000,747.000000 
M518.500061,538.826172 
	C435.850830,538.826172 353.201599,538.826172 270.552368,538.826294 
	C269.219330,538.826294 267.883636,538.773804 266.553680,538.838379 
	C260.707825,539.122192 257.063660,543.040771 257.159637,548.896545 
	C257.267914,555.499084 261.325104,558.834045 269.308258,558.834290 
	C402.446686,558.837463 535.585144,558.836609 668.723572,558.836304 
	C671.056335,558.836243 673.401062,558.982300 675.719360,558.798096 
	C680.493164,558.418579 683.947144,555.301514 684.750854,550.885681 
	C686.034668,543.831787 681.634766,538.849609 673.967285,538.846069 
	C622.478210,538.822632 570.989197,538.829285 518.500061,538.826172 
M525.500061,503.822784 
	C456.021667,503.822754 386.543243,503.822357 317.064850,503.825348 
	C315.399353,503.825439 313.724060,503.755859 312.070221,503.905334 
	C307.301636,504.336365 304.095062,507.475220 303.515350,512.148193 
	C302.600494,519.522888 306.925659,523.839600 315.280151,523.839966 
	C417.748260,523.844055 520.216370,523.842651 622.684448,523.842957 
	C624.850403,523.842957 627.022156,523.950195 629.181091,523.828491 
	C634.797119,523.511597 638.372864,519.768677 638.523804,514.180481 
	C638.706360,507.421143 634.995300,503.858398 627.468628,503.849640 
	C593.812439,503.810394 560.156311,503.826599 525.500061,503.822784 
z"/>
<path fill="#040404" opacity="1.000000" stroke="none" 
	d="
M648.555847,0.999995 
	C653.623352,3.590991 659.049133,5.359916 662.711792,8.935134 
	C671.815918,17.821875 671.174377,32.617554 662.122437,41.707302 
	C660.843628,42.991486 659.468018,44.179325 658.499451,45.076302 
	C659.847961,53.757656 661.140625,62.104000 662.444824,70.448517 
	C662.650208,71.762215 662.477417,73.439140 663.224426,74.306519 
	C665.387695,76.818253 667.735962,80.541458 670.380127,80.875938 
	C672.934753,81.199089 676.782654,78.498123 678.552612,76.038887 
	C680.874939,72.812218 681.717773,68.520721 683.203430,64.670265 
	C673.201660,57.552391 668.786560,48.543663 671.949036,36.776520 
	C674.697021,26.551500 683.847778,19.853724 694.563477,19.823366 
	C705.393555,19.792681 714.629395,26.699223 717.588623,37.041504 
	C720.453247,47.053085 716.370605,58.283154 707.338867,63.410816 
	C704.072205,65.265472 702.765381,67.569038 701.828552,70.906219 
	C698.241394,83.684219 694.177063,96.330978 690.736023,109.146248 
	C688.761108,116.501205 690.447205,123.503448 694.041870,130.299240 
	C706.635986,154.108185 713.353760,179.310303 712.062317,206.504547 
	C710.178650,246.170929 683.785828,275.941864 644.435547,280.790344 
	C629.469727,282.634369 614.200562,282.022919 599.068970,282.508392 
	C596.940918,282.576691 594.808838,282.517822 592.178040,282.517822 
	C592.178040,292.946808 592.178101,302.906464 592.178040,312.866119 
	C592.177979,317.532562 592.137390,322.199402 592.188416,326.865295 
	C592.244995,332.040710 594.173767,333.155243 598.605774,330.497467 
	C617.277405,319.300293 635.867615,307.966187 654.594482,296.862518 
	C673.440613,285.688232 693.223083,281.519379 714.072083,290.815063 
	C748.748047,306.275665 761.091187,354.818298 724.157776,381.354034 
	C717.630249,386.043884 710.043884,389.381165 702.675110,392.749451 
	C692.519775,397.391418 683.737610,403.357635 679.558167,414.187469 
	C674.386963,427.587372 680.771606,441.657532 694.582214,447.957397 
	C712.307251,456.042786 730.574219,451.891357 744.710388,436.340057 
	C749.853943,430.681671 754.799744,424.820770 759.467590,418.768341 
	C760.688721,417.185120 760.976318,414.528961 760.932495,412.381042 
	C760.664856,399.246826 769.923462,388.885315 783.318909,387.599609 
	C795.406860,386.439453 806.210938,395.014923 808.103943,407.272125 
	C810.102112,420.210480 802.353516,432.015381 789.681396,434.454803 
	C785.907227,435.181335 781.618408,434.891815 777.916382,433.836395 
	C774.665710,432.909668 773.197144,433.642456 771.378784,436.072601 
	C768.390869,440.065826 764.816956,443.627472 761.918213,447.677551 
	C760.520203,449.630798 758.816101,453.786316 759.467957,454.341553 
	C761.614929,456.170319 764.812378,457.819092 767.538696,457.717743 
	C775.830261,457.409546 784.085815,456.202484 792.364380,455.442902 
	C795.818176,455.126007 799.294617,455.055298 802.667419,454.877563 
	C809.073853,441.633301 817.399780,436.240417 828.967285,437.723999 
	C839.396667,439.061615 847.326782,446.566406 849.225891,456.896057 
	C851.103821,467.110504 846.220825,477.365021 837.202026,482.146912 
	C828.047546,487.000732 816.711121,485.614563 809.551270,478.234161 
	C807.113708,475.721588 804.837646,474.642914 801.413147,474.953857 
	C792.467590,475.766144 783.498596,476.319092 774.539978,476.989319 
	C773.713074,477.051208 772.765259,476.986664 772.094116,477.368500 
	C769.881409,478.627350 767.770020,480.064392 765.619751,481.433014 
	C767.277832,483.357208 768.561768,486.135925 770.660095,487.054596 
	C778.837524,490.634949 787.220581,493.778259 795.663330,496.688934 
	C797.107056,497.186676 799.418518,496.091675 800.984558,495.155853 
	C809.355713,490.153320 820.010986,490.331268 827.779114,496.124634 
	C836.101929,502.331787 839.123352,510.886383 836.825256,520.819641 
	C834.559265,530.614319 827.924683,536.626953 818.079285,538.689148 
	C806.383972,541.138855 794.393188,533.593018 791.016968,521.881348 
	C790.469360,519.981934 790.151855,518.016235 789.839844,516.591919 
	C781.151062,513.249512 772.809448,510.020905 764.451904,506.833862 
	C760.122681,505.182983 755.809937,504.949677 752.542297,508.770386 
	C749.460571,512.373596 751.541931,516.017456 753.430908,519.388794 
	C754.316833,520.970032 755.571411,522.348145 756.687683,523.796021 
	C759.075500,526.893311 761.350708,528.111877 765.775757,526.374146 
	C775.485168,522.561218 786.272827,526.425659 792.347046,534.792358 
	C798.290527,542.979004 798.405640,553.990906 792.635376,562.371765 
	C787.007935,570.545166 776.201294,574.378174 766.597961,571.607056 
	C756.600769,568.722290 749.765747,560.097778 749.603577,549.519592 
	C749.550659,546.071777 748.357971,543.865967 745.977600,541.425720 
	C737.842834,533.086243 730.252930,524.215759 722.125854,515.868408 
	C715.170044,508.724182 706.870117,505.120422 696.423035,504.628632 
	C666.394531,503.214996 638.447693,495.027435 614.613770,475.736633 
	C605.029907,467.979584 597.463989,458.538757 592.409973,447.249695 
	C591.192017,444.529236 589.915771,442.929932 586.692932,442.222534 
	C575.875183,439.848022 568.621643,430.514465 568.470886,419.573059 
	C568.323120,408.846954 575.683472,399.332031 586.333191,396.482147 
	C596.481323,393.766449 607.597107,398.355042 612.793762,407.792053 
	C617.347412,416.061188 617.197510,424.628845 611.813049,432.327576 
	C609.490723,435.647949 609.985535,437.891541 611.515320,440.828918 
	C619.947083,457.019287 633.888123,466.832184 650.032471,474.025696 
	C664.467041,480.457428 679.705933,484.310150 695.414490,484.611359 
	C710.290771,484.896637 723.224976,488.833954 733.704102,499.183197 
	C737.810181,495.382965 741.637085,491.841064 744.884094,488.835938 
	C745.611511,483.380371 746.966675,478.197296 746.720032,473.091614 
	C746.584534,470.286896 743.750671,467.612518 742.077087,464.784058 
	C722.993835,474.598480 703.967468,474.534241 685.437683,465.739563 
	C650.449707,449.133606 648.154541,404.561920 680.934631,382.130829 
	C686.231384,378.506409 692.186646,375.738342 698.077209,373.112030 
	C707.206787,369.041687 715.525818,364.036865 721.074097,355.456360 
	C733.238770,336.643372 721.747559,311.704742 698.871826,307.018311 
	C687.524231,304.693604 676.955322,307.077057 667.217102,312.784851 
	C647.436646,324.378632 627.825195,336.262756 608.259949,348.216827 
	C607.001953,348.985413 606.198608,351.337738 606.089844,353.012146 
	C605.354004,364.344666 597.035950,373.713959 586.049561,375.258759 
	C574.122314,376.935883 563.607544,370.502045 559.910889,359.264984 
	C556.572571,349.117188 560.403870,338.367371 569.414429,332.050720 
	C570.705872,331.145355 572.312073,329.483734 572.330383,328.152130 
	C572.536926,313.181488 572.461121,298.206970 572.461121,282.876709 
	C560.572388,282.876709 548.999329,282.876709 537.133301,282.876709 
	C537.133301,344.640839 537.133301,406.528442 537.133301,468.827423 
	C552.170166,468.827423 566.963867,468.775055 581.756958,468.849792 
	C589.039673,468.886566 592.420959,472.537659 592.165710,479.737274 
	C591.983704,484.870605 588.606018,488.416901 583.471130,488.830658 
	C582.643066,488.897400 581.805298,488.843262 580.971985,488.843262 
	C507.642303,488.842438 434.312653,488.844238 360.982971,488.835968 
	C353.975067,488.835175 350.220673,485.886414 349.829865,480.166992 
	C349.327179,472.809570 352.863953,468.893127 360.304901,468.852234 
	C373.470520,468.779846 386.636810,468.827515 399.802826,468.825012 
	C401.426208,468.824707 403.049591,468.824951 404.914856,468.824951 
	C404.914856,406.623840 404.914856,344.870331 404.914856,282.815918 
	C393.401947,282.815918 381.981995,282.815918 370.092865,282.815918 
	C370.016846,284.055420 369.855896,285.478760 369.853760,286.902344 
	C369.833740,300.068298 369.890442,313.234650 369.799164,326.400024 
	C369.780762,329.052460 370.258606,330.756348 372.809753,332.428925 
	C382.411469,338.723907 385.807007,350.637909 381.448669,361.024872 
	C377.026764,371.563354 366.682159,377.091919 355.091248,375.111298 
	C344.413727,373.286743 336.611938,363.966797 335.872803,352.646851 
	C335.761658,350.944641 334.440002,348.688599 332.995209,347.802094 
	C314.157013,336.243378 295.277435,324.746490 276.233734,313.530396 
	C265.127106,306.988953 253.201630,303.809052 240.373245,307.833191 
	C227.413071,311.898682 218.892334,320.549011 216.376221,333.972992 
	C213.948303,346.926361 219.647842,357.162598 229.701019,364.774963 
	C234.663391,368.532471 240.460800,371.359772 246.197144,373.889740 
	C262.481720,381.071960 275.819397,391.207703 281.857666,408.674530 
	C291.068695,435.319000 274.334473,462.979279 245.008652,469.968933 
	C228.794235,473.833588 216.659805,472.515656 200.562897,465.176392 
	C195.816193,468.704132 194.160751,472.842743 196.485977,478.761810 
	C197.550522,481.471741 196.667068,484.946899 196.667068,488.482117 
	C199.955338,491.484436 203.827332,495.019745 208.162918,498.978333 
	C207.614456,498.978333 208.047226,499.110077 208.197556,498.959595 
	C220.897446,486.249237 237.227737,485.269501 253.848160,483.841675 
	C276.435303,481.901245 297.617065,474.859924 314.972748,459.709961 
	C321.326508,454.163696 325.799957,446.437805 330.990662,439.599579 
	C332.639008,437.428070 332.321655,435.367188 330.570831,432.880402 
	C324.747314,424.609039 324.463074,415.737183 329.710876,407.123535 
	C334.979767,398.475250 343.102356,394.716797 353.080475,396.080200 
	C362.835510,397.413086 369.401886,403.122070 372.425293,412.556396 
	C376.547546,425.419586 368.864502,439.005371 355.461273,442.207184 
	C352.373413,442.944855 350.922943,444.345886 349.639069,447.132141 
	C339.628113,468.858032 322.006561,482.463928 300.794739,492.001129 
	C282.523346,500.216248 263.238190,504.318634 243.259399,504.758728 
	C233.683212,504.969666 226.298981,509.369049 219.990845,515.743469 
	C210.983261,524.845703 202.357880,534.333191 193.790283,543.855103 
	C192.681885,545.086975 192.594818,547.494934 192.537064,549.373596 
	C192.135422,562.438721 181.660858,572.652588 168.632202,572.538696 
	C155.530212,572.424194 145.001724,561.595337 145.155716,548.392517 
	C145.306396,535.472046 155.907043,524.939087 168.836395,525.045715 
	C171.294312,525.065918 174.146774,525.094238 176.120697,526.279114 
	C180.625961,528.983582 183.200195,526.783264 185.542984,523.491394 
	C187.262009,521.075806 189.045502,518.596313 190.156982,515.881897 
	C192.234695,510.807831 189.446686,506.295593 183.996445,506.050049 
	C181.292847,505.928223 178.428268,506.665619 175.825256,507.562195 
	C169.399368,509.775574 163.176605,512.617371 156.682236,514.577087 
	C153.402985,515.566650 151.969315,516.816895 151.239944,520.311829 
	C148.711151,532.428955 138.301682,539.891174 126.029640,538.965942 
	C114.658470,538.108643 105.385391,528.860046 104.590218,517.008728 
	C103.961044,507.631531 107.679520,500.018219 115.800240,495.103394 
	C124.038811,490.117249 132.437866,490.531616 140.919388,495.043182 
	C142.967621,496.132690 146.029099,496.796356 148.101456,496.099640 
	C156.089066,493.414368 163.955490,490.302643 171.656723,486.876953 
	C173.634918,485.997040 174.843140,483.386169 176.405090,481.570526 
	C174.453659,480.240967 172.604980,477.964386 170.533691,477.739655 
	C159.312469,476.522095 148.041672,475.717163 136.770874,475.065552 
	C135.573669,474.996338 134.144043,476.725800 133.027786,477.828857 
	C124.080063,486.670837 110.049614,487.395081 100.839775,479.433167 
	C91.312279,471.196716 89.560234,457.688843 96.695190,447.479370 
	C103.720207,437.427094 117.764824,434.077179 128.098694,440.981323 
	C132.828506,444.141388 136.171616,449.376984 140.898529,454.487457 
	C151.228958,455.537598 163.246689,456.970917 175.305878,457.805115 
	C177.691727,457.970154 181.078278,456.424408 182.402618,454.541687 
	C183.237808,453.354279 181.354187,449.940002 180.212692,447.776581 
	C179.305115,446.056458 177.607101,444.770569 176.375565,443.201202 
	C171.793259,437.361938 168.356079,432.419403 158.302277,434.433929 
	C144.852112,437.128967 133.701508,425.164795 133.495346,411.402222 
	C133.297302,398.182068 143.989395,387.303040 157.041183,387.444733 
	C170.905334,387.595276 181.343994,398.748138 181.088593,412.731689 
	C181.045135,415.111267 181.887512,418.068451 183.405029,419.818604 
	C190.257172,427.721252 196.844910,436.050323 204.740891,442.808563 
	C219.816879,455.712128 243.123703,454.794678 256.325012,441.807770 
	C265.122986,433.152588 266.725708,420.399933 260.402008,409.799927 
	C255.103180,400.917847 246.919479,395.745361 237.599854,392.105560 
	C227.101746,388.005493 217.420441,382.615051 209.626419,374.349335 
	C183.516907,346.659637 195.430679,301.893036 232.410980,288.996368 
	C250.207367,282.790009 267.381287,285.578369 283.354858,294.682648 
	C303.272278,306.034729 322.736633,318.180389 342.469452,329.860352 
	C344.082001,330.814819 346.860718,331.761627 348.003357,331.021851 
	C349.266815,330.203857 349.730347,327.443909 349.748840,325.522095 
	C349.884918,311.390350 349.822327,297.256683 349.822327,282.517822 
	C342.973694,282.517822 336.530457,282.457489 330.088715,282.530029 
	C315.423981,282.695190 300.804626,282.615326 286.485260,278.683319 
	C251.568909,269.095551 230.310226,240.226639 229.774460,202.152649 
	C229.422012,177.106461 235.625534,153.716202 247.240494,131.810684 
	C252.024918,122.787392 253.138336,113.912224 250.413361,104.424316 
	C246.886139,92.143112 243.081268,79.940331 239.245605,67.751099 
	C238.867065,66.548157 237.619980,65.372719 236.474045,64.695488 
	C226.261734,58.660130 221.556274,48.439636 224.193512,37.710384 
	C226.614182,27.862061 235.664322,20.364069 245.753677,19.847897 
	C256.619629,19.291996 266.072052,25.342999 269.642609,35.140484 
	C273.437012,45.552197 269.950073,56.191048 260.430267,63.276756 
	C260.037048,63.569439 259.698608,63.935654 258.885254,64.677467 
	C260.203949,68.175766 261.397369,71.943977 263.032837,75.509438 
	C264.636627,79.005882 267.296478,81.829216 271.482422,81.287605 
	C275.986603,80.704834 278.290283,77.295601 279.067627,73.092491 
	C280.516815,65.256508 281.694122,57.370495 283.026611,49.512436 
	C283.246063,48.218227 283.679749,46.960346 284.070251,45.472980 
	C276.774323,39.917370 272.272614,32.889122 273.008514,23.358471 
	C273.884949,12.007094 280.563110,5.367445 290.908997,1.348495 
	C293.700012,1.000000 296.400024,1.000000 299.674011,1.368268 
	C301.699799,2.025891 303.226440,2.118243 304.591248,2.636593 
	C313.414459,5.987630 318.885101,12.252248 320.031891,21.703802 
	C321.296204,32.123501 317.287292,40.162800 308.306732,45.741379 
	C306.609741,46.795521 304.215759,48.140041 303.872162,49.725292 
	C302.011200,58.310780 300.389343,66.978714 299.377350,75.698586 
	C299.080414,78.257164 301.045746,81.078300 301.974243,83.779099 
	C304.296997,82.402466 307.328156,81.553764 308.817078,79.555725 
	C314.568451,71.837845 319.711426,63.669651 325.331512,55.849213 
	C327.372070,53.009682 327.451111,50.566570 326.621033,47.215073 
	C324.313690,37.899296 326.811249,29.625498 334.231140,23.409964 
	C341.786621,17.080853 350.517487,15.908100 359.451599,20.001423 
	C367.985443,23.911358 372.807648,30.812044 373.131378,40.388603 
	C373.633240,55.233482 362.602234,65.802071 347.557495,65.210114 
	C345.817963,65.141663 343.226837,65.398163 342.411591,66.513504 
	C335.548279,75.902878 328.868683,85.437042 322.495697,95.164719 
	C321.342285,96.925301 320.842834,100.481430 321.861664,101.915359 
	C322.890167,103.362915 326.242371,103.834251 328.470673,103.621971 
	C334.083954,103.087227 339.679596,102.115051 345.186493,100.888123 
	C346.616486,100.569527 348.467438,98.861160 348.811615,97.466927 
	C351.559235,86.337051 359.496490,79.318413 370.894592,78.377594 
	C380.615906,77.575180 390.121307,83.623718 394.122620,93.158180 
	C398.153717,102.763611 395.309662,113.889244 387.092896,120.657440 
	C379.173157,127.180977 367.917572,127.484985 358.643646,121.752945 
	C356.870483,120.656967 354.347382,120.077538 352.276276,120.290558 
	C345.996704,120.936432 339.734131,121.904190 333.529205,123.084335 
	C323.449768,125.001404 313.506836,127.795677 306.763336,136.142990 
	C295.645477,149.905014 290.631287,165.924194 292.210541,183.553970 
	C293.455475,197.451889 302.449036,203.246796 316.041595,199.635178 
	C327.682892,196.541992 337.477661,189.944794 346.856049,182.700180 
	C377.808319,158.790085 408.744476,134.858917 439.642639,110.878952 
	C460.263580,94.875114 481.684662,94.810890 502.193604,110.719818 
	C533.362244,134.897537 564.533020,159.072830 595.787354,183.139587 
	C605.963623,190.975632 616.568787,198.157135 629.670349,200.276077 
	C639.836426,201.920273 646.530579,197.673096 648.967896,187.670105 
	C652.107361,174.785416 648.825134,162.682190 644.145691,150.727173 
	C638.327820,135.863663 627.779114,126.821297 612.081055,123.915001 
	C605.052979,122.613853 598.014160,121.253868 590.918823,120.494118 
	C588.255493,120.208939 585.031921,120.896736 582.726501,122.260895 
	C572.275208,128.445190 559.256653,126.528496 551.570374,117.259712 
	C543.880066,107.986046 544.298828,94.599800 552.554077,85.814110 
	C560.758545,77.082497 573.913208,75.923729 583.874817,82.953102 
	C590.009094,87.281761 592.620361,93.584511 593.780334,100.385513 
	C600.874023,101.591995 607.559570,102.956802 614.312683,103.737549 
	C616.314026,103.968925 619.239929,103.141281 620.379028,101.712288 
	C621.303223,100.552925 620.327209,97.737061 619.909241,95.714706 
	C619.724243,94.819412 618.837219,94.068703 618.266968,93.253677 
	C612.646423,85.220642 606.814026,77.323990 601.511230,69.086426 
	C599.457397,65.895821 597.559265,64.827599 593.663574,65.025169 
	C577.407166,65.849632 565.412292,51.099571 569.384521,35.661114 
	C572.666199,22.906487 585.743896,15.172823 598.375732,18.516747 
	C611.455566,21.979273 618.875061,34.951721 615.290710,47.965530 
	C614.878296,49.463169 614.176758,51.566002 614.842834,52.569447 
	C621.177429,62.113361 627.675659,71.555122 634.406433,80.823204 
	C635.506165,82.337502 637.970520,82.860771 639.804199,83.842094 
	C640.788696,81.857773 642.091675,79.959404 642.657593,77.862129 
	C643.114624,76.168320 642.900146,74.199005 642.606873,72.413803 
	C641.476196,65.531670 640.463318,58.608707 638.812622,51.845921 
	C638.284851,49.683815 636.295044,47.347858 634.328674,46.158527 
	C625.305908,40.701153 620.916443,32.958996 621.904114,22.457630 
	C622.816833,12.753518 628.214417,6.312264 637.166870,2.710425 
	C638.463989,2.188547 639.723206,1.572477 641.000000,0.999999 
	C643.370544,1.000000 645.741150,1.000000 648.555847,0.999995 
M409.499695,262.504211 
	C479.991241,262.504181 550.482788,262.514893 620.974365,262.481232 
	C625.964600,262.478851 630.967651,262.321594 635.942810,261.945709 
	C669.819458,259.386230 691.178894,236.866287 692.197693,203.088943 
	C692.877380,180.552521 686.634766,159.855728 676.658997,139.958252 
	C674.155151,134.964203 671.622864,129.619339 670.886719,124.193756 
	C669.898132,116.908661 670.641724,109.388519 670.641724,102.138603 
	C665.831787,100.635826 660.844971,99.077789 656.617004,97.756844 
	C651.297302,100.300423 646.296997,102.691269 640.864563,105.288765 
	C640.186523,107.192261 639.246399,109.831741 638.367554,112.299026 
	C641.587158,114.999268 645.107971,117.342102 647.875488,120.372795 
	C665.017822,139.144882 672.364075,161.646225 669.383728,186.542664 
	C666.151611,213.541931 645.791565,225.889877 619.608765,218.533279 
	C607.755676,215.202911 597.145874,209.326004 587.477478,201.913788 
	C554.849426,176.899704 522.383118,151.674515 489.858459,126.525513 
	C476.679932,116.335503 465.357269,116.299698 452.284363,126.424484 
	C420.962616,150.682709 389.666901,174.974640 358.304474,199.180115 
	C347.457153,207.552032 335.880829,214.688705 322.558746,218.501923 
	C298.450836,225.402390 278.962952,215.206558 273.669586,192.058762 
	C271.929260,184.448242 271.645081,176.077927 272.712006,168.332901 
	C275.813721,145.817139 283.936432,125.662407 303.694427,112.495529 
	C302.968384,110.442238 302.506531,108.650963 301.703430,107.028595 
	C301.130432,105.871078 300.310181,104.497520 299.235657,103.985550 
	C294.677551,101.813774 289.983307,99.927795 285.148071,97.855675 
	C280.860168,99.194313 275.893799,100.744751 270.524902,102.420853 
	C274.594971,117.688522 270.274872,131.256409 263.178650,144.902359 
	C253.788879,162.958740 248.955078,182.468307 249.845764,203.069809 
	C250.734711,223.630585 257.618073,241.167435 275.877228,252.491379 
	C288.113068,260.079803 301.854309,262.428131 316.010986,262.473572 
	C346.840271,262.572540 377.670074,262.504211 409.499695,262.504211 
M425.171783,314.499939 
	C425.171783,365.884949 425.171783,417.269958 425.171783,468.540588 
	C437.546265,468.540588 449.135254,468.540588 460.681763,468.540588 
	C460.681763,406.375366 460.681763,344.504364 460.681763,282.814514 
	C448.765350,282.814514 437.166290,282.814514 425.171783,282.814514 
	C425.171783,293.242523 425.171783,303.371216 425.171783,314.499939 
M516.825500,412.500061 
	C516.825500,369.281372 516.825500,326.062683 516.825500,282.736572 
	C504.525269,282.736572 492.942535,282.736572 481.310059,282.736572 
	C481.310059,344.819794 481.310059,406.679443 481.310059,468.576599 
	C493.198303,468.576599 504.778076,468.576599 516.825500,468.576599 
	C516.825500,450.050293 516.825500,431.775208 516.825500,412.500061 
M357.834351,47.172935 
	C360.131531,43.230621 360.663025,38.819927 357.364410,35.711079 
	C355.031494,33.512394 351.129578,31.965582 347.920959,31.953068 
	C343.423096,31.935522 340.523071,35.301800 339.786041,39.898430 
	C339.054321,44.461906 340.735443,48.095730 344.865051,50.238277 
	C349.593719,52.691628 353.817566,51.686501 357.834351,47.172935 
M595.461365,51.048450 
	C601.947510,47.767643 604.158569,42.486149 601.343445,36.997990 
	C599.071472,32.568707 593.789734,30.440237 589.118774,32.071583 
	C584.431396,33.708664 581.694458,38.657158 582.748047,43.590141 
	C583.943970,49.189667 588.064331,51.802555 595.461365,51.048450 
M654.281860,29.308809 
	C656.139954,23.391338 655.118530,19.489384 650.855652,16.711708 
	C646.959229,14.172838 643.039124,14.238547 639.360168,17.127159 
	C636.270813,19.552765 634.822266,22.764065 635.596558,26.733757 
	C636.399719,30.851162 638.924866,33.615093 642.907349,34.659805 
	C647.618835,35.895748 651.285950,34.001617 654.281860,29.308809 
M563.664001,109.969963 
	C567.826050,112.813110 572.068054,113.033318 576.055603,109.839767 
	C579.254517,107.277832 580.677673,103.820419 579.531494,99.688919 
	C578.293152,95.225250 575.195068,92.606598 570.692566,92.121094 
	C566.551025,91.674522 563.187195,93.575943 561.188904,97.210533 
	C558.742798,101.659607 559.567078,105.828728 563.664001,109.969963 
M370.076630,92.251434 
	C361.486450,95.916954 359.317230,104.486397 365.752747,109.723671 
	C369.291412,112.603470 373.259003,113.005699 377.288086,110.632729 
	C381.144226,108.361610 383.021820,103.678986 381.848969,99.512001 
	C380.524658,94.806793 376.916992,92.379440 370.076630,92.251434 
M239.587143,49.792671 
	C245.049194,54.538731 250.709442,54.616459 254.836502,50.002075 
	C258.505707,45.899624 257.986053,39.567051 253.674850,35.845997 
	C250.215057,32.859818 245.069092,32.726971 241.298203,35.526531 
	C237.147217,38.608280 236.385193,43.402439 239.587143,49.792671 
M298.134857,34.943764 
	C306.313660,31.984947 309.165283,24.777058 304.501434,18.851202 
	C301.712067,15.307061 296.941132,14.013730 292.938904,15.716768 
	C288.436218,17.632771 286.018707,22.141539 286.895782,26.987474 
	C287.735870,31.629128 291.402924,34.445179 298.134857,34.943764 
M685.892517,48.180737 
	C689.912659,53.323837 694.299316,54.719517 699.107483,52.385250 
	C703.293152,50.353207 705.528809,45.634285 704.367859,41.281975 
	C702.839722,35.552784 697.910583,32.521812 692.322388,33.875206 
	C686.315491,35.329990 683.949829,40.047287 685.892517,48.180737 
M349.829956,352.418610 
	C350.093658,359.648590 357.297913,362.916138 361.967133,361.613861 
	C366.910217,360.235168 370.062317,355.671265 369.374084,350.681152 
	C368.705933,345.836395 364.682739,342.145294 359.922302,342.009613 
	C354.636627,341.858917 350.895447,345.412323 349.829956,352.418610 
M153.719589,402.048859 
	C146.470795,406.473755 145.016327,413.330475 150.239441,418.455231 
	C153.468475,421.623413 158.944839,422.139374 162.646759,419.624207 
	C166.304993,417.138733 167.964844,412.226166 166.514908,408.175751 
	C164.745071,403.231720 160.694016,401.129608 153.719589,402.048859 
M169.324783,539.002380 
	C164.842880,538.828979 161.051285,540.690430 159.997833,544.903442 
	C159.246689,547.907349 159.665894,551.923828 161.158508,554.597717 
	C163.323532,558.476196 167.470657,559.748657 172.022903,558.114868 
	C176.497253,556.508911 178.900406,553.014771 178.698639,548.608154 
	C178.466110,543.529480 175.461472,540.003784 169.324783,539.002380 
M593.162964,409.596680 
	C585.561829,410.183929 580.962708,415.208405 582.437927,421.313568 
	C583.668762,426.407349 587.863281,429.503754 593.048462,429.146301 
	C597.665894,428.827942 601.480286,425.178467 601.987610,420.593658 
	C602.565125,415.373291 599.796326,411.661255 593.162964,409.596680 
M340.036743,417.895721 
	C340.083466,419.221985 339.830200,420.647705 340.230988,421.856598 
	C341.653534,426.147339 344.453674,428.919067 349.239075,429.171173 
	C353.982269,429.421082 357.176147,427.179352 358.999451,422.949219 
	C360.812927,418.741791 359.590698,414.948914 356.392242,412.105591 
	C350.230988,406.628448 341.732574,410.360474 340.036743,417.895721 
M774.997131,411.496552 
	C776.300049,419.655151 783.251648,423.691956 789.650818,420.006104 
	C793.657593,417.698273 795.594055,413.228851 794.409912,409.021790 
	C793.096375,404.355011 789.100098,401.328674 784.506836,401.522125 
	C779.593872,401.729095 776.370789,404.836700 774.997131,411.496552 
M764.944336,543.588135 
	C762.400085,547.607544 762.399109,551.948242 765.800354,554.966003 
	C768.109070,557.014404 771.931030,558.431091 774.997131,558.298584 
	C779.508972,558.103455 782.355042,554.636719 782.974182,550.040588 
	C783.566223,545.645874 781.711731,542.220276 777.812256,540.082825 
	C773.631592,537.791077 769.671753,538.751587 764.944336,543.588135 
M806.735657,508.277679 
	C802.810120,513.700256 802.932129,518.757935 807.078369,522.485474 
	C811.049500,526.055603 816.766113,525.956116 820.598694,522.250183 
	C824.220581,518.747742 824.589355,513.054932 821.449402,509.113678 
	C817.970093,504.746246 812.672668,504.260437 806.735657,508.277679 
M119.726898,510.375946 
	C117.531586,514.953430 118.011345,519.159180 121.841354,522.600891 
	C124.958878,525.402466 128.608734,525.987305 132.461838,524.083618 
	C136.233063,522.220337 138.325241,519.187012 138.134140,514.927612 
	C137.936249,510.517456 135.665039,507.443329 131.478668,505.932343 
	C126.717079,504.213776 123.087448,506.079956 119.726898,510.375946 
M826.440613,471.112183 
	C832.103149,469.949371 835.415649,466.980042 835.889160,462.376068 
	C836.348022,457.914978 834.310669,454.571320 830.500916,452.501495 
	C826.366577,450.255249 821.967651,450.754486 819.274658,454.423370 
	C817.449097,456.910522 816.377747,460.793152 816.736267,463.844025 
	C817.270874,468.392334 821.012878,470.679504 826.440613,471.112183 
M119.322296,451.975250 
	C115.285057,450.517487 111.298592,451.161957 109.080566,454.636078 
	C107.398590,457.270569 106.285133,461.127441 106.805870,464.110992 
	C107.623352,468.794830 111.546280,471.252045 116.426941,471.053070 
	C121.060242,470.864258 124.111649,468.223602 125.529190,463.821625 
	C126.925774,459.484711 125.088631,455.686432 119.322296,451.975250 
M573.313049,355.999481 
	C575.719971,360.437683 579.411011,362.665222 584.418091,361.603516 
	C588.667175,360.702545 591.448425,357.886749 592.072876,353.448547 
	C592.657104,349.296509 591.198608,345.865356 587.597717,343.613861 
	C584.022583,341.378418 580.318909,341.406708 576.847351,343.857391 
	C572.823975,346.697540 571.778320,350.639923 573.313049,355.999481 
z"/>
<path fill="#FDFDFD" opacity="1.000000" stroke="none" 
	d="
M640.531372,0.999999 
	C639.723206,1.572477 638.463989,2.188547 637.166870,2.710425 
	C628.214417,6.312264 622.816833,12.753518 621.904114,22.457630 
	C620.916443,32.958996 625.305908,40.701153 634.328674,46.158527 
	C636.295044,47.347858 638.284851,49.683815 638.812622,51.845921 
	C640.463318,58.608707 641.476196,65.531670 642.606873,72.413803 
	C642.900146,74.199005 643.114624,76.168320 642.657593,77.862129 
	C642.091675,79.959404 640.788696,81.857773 639.804199,83.842094 
	C637.970520,82.860771 635.506165,82.337502 634.406433,80.823204 
	C627.675659,71.555122 621.177429,62.113361 614.842834,52.569447 
	C614.176758,51.566002 614.878296,49.463169 615.290710,47.965530 
	C618.875061,34.951721 611.455566,21.979273 598.375732,18.516747 
	C585.743896,15.172823 572.666199,22.906487 569.384521,35.661114 
	C565.412292,51.099571 577.407166,65.849632 593.663574,65.025169 
	C597.559265,64.827599 599.457397,65.895821 601.511230,69.086426 
	C606.814026,77.323990 612.646423,85.220642 618.266968,93.253677 
	C618.837219,94.068703 619.724243,94.819412 619.909241,95.714706 
	C620.327209,97.737061 621.303223,100.552925 620.379028,101.712288 
	C619.239929,103.141281 616.314026,103.968925 614.312683,103.737549 
	C607.559570,102.956802 600.874023,101.591995 593.780334,100.385513 
	C592.620361,93.584511 590.009094,87.281761 583.874817,82.953102 
	C573.913208,75.923729 560.758545,77.082497 552.554077,85.814110 
	C544.298828,94.599800 543.880066,107.986046 551.570374,117.259712 
	C559.256653,126.528496 572.275208,128.445190 582.726501,122.260895 
	C585.031921,120.896736 588.255493,120.208939 590.918823,120.494118 
	C598.014160,121.253868 605.052979,122.613853 612.081055,123.915001 
	C627.779114,126.821297 638.327820,135.863663 644.145691,150.727173 
	C648.825134,162.682190 652.107361,174.785416 648.967896,187.670105 
	C646.530579,197.673096 639.836426,201.920273 629.670349,200.276077 
	C616.568787,198.157135 605.963623,190.975632 595.787354,183.139587 
	C564.533020,159.072830 533.362244,134.897537 502.193604,110.719818 
	C481.684662,94.810890 460.263580,94.875114 439.642639,110.878952 
	C408.744476,134.858917 377.808319,158.790085 346.856049,182.700180 
	C337.477661,189.944794 327.682892,196.541992 316.041595,199.635178 
	C302.449036,203.246796 293.455475,197.451889 292.210541,183.553970 
	C290.631287,165.924194 295.645477,149.905014 306.763336,136.142990 
	C313.506836,127.795677 323.449768,125.001404 333.529205,123.084335 
	C339.734131,121.904190 345.996704,120.936432 352.276276,120.290558 
	C354.347382,120.077538 356.870483,120.656967 358.643646,121.752945 
	C367.917572,127.484985 379.173157,127.180977 387.092896,120.657440 
	C395.309662,113.889244 398.153717,102.763611 394.122620,93.158180 
	C390.121307,83.623718 380.615906,77.575180 370.894592,78.377594 
	C359.496490,79.318413 351.559235,86.337051 348.811615,97.466927 
	C348.467438,98.861160 346.616486,100.569527 345.186493,100.888123 
	C339.679596,102.115051 334.083954,103.087227 328.470673,103.621971 
	C326.242371,103.834251 322.890167,103.362915 321.861664,101.915359 
	C320.842834,100.481430 321.342285,96.925301 322.495697,95.164719 
	C328.868683,85.437042 335.548279,75.902878 342.411591,66.513504 
	C343.226837,65.398163 345.817963,65.141663 347.557495,65.210114 
	C362.602234,65.802071 373.633240,55.233482 373.131378,40.388603 
	C372.807648,30.812044 367.985443,23.911358 359.451599,20.001423 
	C350.517487,15.908100 341.786621,17.080853 334.231140,23.409964 
	C326.811249,29.625498 324.313690,37.899296 326.621033,47.215073 
	C327.451111,50.566570 327.372070,53.009682 325.331512,55.849213 
	C319.711426,63.669651 314.568451,71.837845 308.817078,79.555725 
	C307.328156,81.553764 304.296997,82.402466 301.974243,83.779099 
	C301.045746,81.078300 299.080414,78.257164 299.377350,75.698586 
	C300.389343,66.978714 302.011200,58.310780 303.872162,49.725292 
	C304.215759,48.140041 306.609741,46.795521 308.306732,45.741379 
	C317.287292,40.162800 321.296204,32.123501 320.031891,21.703802 
	C318.885101,12.252248 313.414459,5.987630 304.591248,2.636593 
	C303.226440,2.118243 301.699799,2.025891 300.124023,1.368268 
	C413.354218,1.000000 526.708435,1.000000 640.531372,0.999999 
z"/>
<path fill="#22C579" opacity="1.000000" stroke="none" 
	d="
M500.014557,746.011169 
	C499.055695,744.095520 497.267090,742.182983 497.259766,740.263672 
	C497.090637,695.932617 497.136322,651.600830 497.072083,607.269287 
	C497.065338,602.625183 498.963684,600.782959 503.695129,600.795044 
	C545.359863,600.901550 587.025330,600.769653 628.689880,600.913818 
	C640.476929,600.954590 651.929138,603.180908 662.152710,609.445984 
	C674.342590,616.915955 678.882874,628.275696 678.104858,642.188171 
	C677.388123,655.004700 671.299744,664.174072 659.750183,669.743530 
	C658.416138,670.386780 657.101807,671.071045 655.220581,672.016785 
	C658.939697,673.872559 662.334290,675.347839 665.514771,677.192444 
	C677.558167,684.177368 682.405029,695.064697 682.014221,708.581726 
	C681.632996,721.769836 676.084595,732.316650 664.202637,738.263062 
	C657.031616,741.852051 648.980042,743.681702 641.162109,746.650879 
	C638.629456,747.000000 636.258850,747.000000 633.182739,746.665527 
	C631.502686,746.196777 630.528198,745.944946 629.553650,745.945129 
	C586.373962,745.953247 543.194275,745.983521 500.014557,746.011169 
M590.500000,685.030212 
	C569.445312,685.030212 548.390625,685.030212 527.371948,685.030212 
	C527.371948,696.757141 527.371948,707.650757 527.371948,718.616150 
	C528.384155,718.760437 529.026184,718.931763 529.668396,718.932129 
	C563.791870,718.949951 597.915771,719.030212 632.038208,718.842773 
	C635.563477,718.823364 639.170410,717.458435 642.580505,716.264099 
	C648.621277,714.148438 651.633240,709.347778 651.701050,703.239624 
	C651.769775,697.049744 649.133362,691.477844 643.199890,689.114990 
	C637.915161,687.010437 632.102112,685.497986 626.446960,685.212097 
	C614.824585,684.624695 603.151978,685.032227 590.500000,685.030212 
M534.577881,627.849976 
	C532.162415,627.962891 529.747009,628.075806 527.383057,628.186340 
	C527.383057,638.687500 527.383057,648.586182 527.383057,658.623962 
	C528.561401,658.724243 529.371948,658.853333 530.182495,658.853577 
	C562.335754,658.864319 594.489136,658.914307 626.641907,658.789795 
	C630.083618,658.776489 633.587585,657.992310 636.947388,657.121094 
	C644.302673,655.213928 647.960510,650.676880 648.138306,643.776978 
	C648.313171,636.989319 644.770325,631.709595 637.782654,629.634277 
	C633.862183,628.469971 629.619507,627.926941 625.518372,627.908630 
	C595.531555,627.774414 565.543823,627.844299 534.577881,627.849976 
z"/>
<path fill="#24C57B" opacity="1.000000" stroke="none" 
	d="
M1.880919,604.028809 
	C3.758615,602.972778 5.633044,601.001831 7.514499,600.995117 
	C50.499222,600.841309 93.486206,600.709106 136.469116,601.042786 
	C148.970612,601.139832 160.631836,604.952515 171.082123,612.308533 
	C191.677826,626.805908 194.907959,670.316711 162.809631,682.841248 
	C161.618652,683.305969 160.480728,683.906677 159.608017,684.310059 
	C164.815445,688.079773 170.322189,691.470032 175.101685,695.684937 
	C180.438614,700.391418 182.843536,706.935669 183.067596,713.979370 
	C183.348206,722.800842 183.205093,731.639099 183.071320,740.467468 
	C183.045074,742.198975 182.227951,743.918457 180.964600,745.814697 
	C171.421204,745.997192 162.688812,746.008423 153.618866,745.864929 
	C152.642807,743.369202 151.551010,741.046875 151.453384,738.683533 
	C151.192276,732.363037 151.373535,726.024902 151.350433,719.693848 
	C151.301773,706.363403 144.724243,699.496094 131.290527,698.978333 
	C125.633911,698.760315 119.963287,698.893738 114.299019,698.889038 
	C96.471924,698.874084 78.644836,698.864685 60.817745,698.864563 
	C57.170284,698.864563 53.976315,698.191162 53.897457,693.630737 
	C53.796661,687.801453 53.549595,681.941956 54.053791,676.155457 
	C54.199974,674.477722 56.466888,672.599060 58.209785,671.575867 
	C59.461555,670.841003 61.458092,671.353088 63.122566,671.346252 
	C86.944260,671.248169 110.768257,671.317505 134.586578,670.982544 
	C143.912109,670.851379 151.283630,665.079285 153.955139,656.990051 
	C159.000000,641.714294 148.997314,628.017639 132.257263,627.916748 
	C100.436249,627.725098 68.613205,627.864014 36.791042,627.894226 
	C35.529617,627.895386 34.268475,628.189331 32.655136,628.390808 
	C32.655136,631.248840 32.655750,633.733276 32.655045,636.217712 
	C32.645466,670.039185 32.650192,703.860657 32.591476,737.682068 
	C32.587795,739.803223 32.087769,741.923462 31.619797,744.151489 
	C31.181530,744.480469 31.075994,744.753723 30.962166,745.312012 
	C30.670258,745.649170 30.520512,745.752930 29.951077,745.865112 
	C20.020926,745.915710 10.510463,745.957886 1.000000,746.000000 
	C1.000000,745.555542 1.000000,745.111084 1.374900,744.119385 
	C1.843901,737.105408 2.022097,730.638611 2.018370,724.171875 
	C1.995289,684.124207 1.931317,644.076477 1.880919,604.028809 
z"/>
<path fill="#FCFFFE" opacity="1.000000" stroke="none" 
	d="
M31.818665,744.044128 
	C32.087769,741.923462 32.587795,739.803223 32.591476,737.682068 
	C32.650192,703.860657 32.645466,670.039185 32.655045,636.217712 
	C32.655750,633.733276 32.655136,631.248840 32.655136,628.390808 
	C34.268475,628.189331 35.529617,627.895386 36.791042,627.894226 
	C68.613205,627.864014 100.436249,627.725098 132.257263,627.916748 
	C148.997314,628.017639 159.000000,641.714294 153.955139,656.990051 
	C151.283630,665.079285 143.912109,670.851379 134.586578,670.982544 
	C110.768257,671.317505 86.944260,671.248169 63.122566,671.346252 
	C61.458092,671.353088 59.461555,670.841003 58.209785,671.575867 
	C56.466888,672.599060 54.199974,674.477722 54.053791,676.155457 
	C53.549595,681.941956 53.796661,687.801453 53.897457,693.630737 
	C53.976315,698.191162 57.170284,698.864563 60.817745,698.864563 
	C78.644836,698.864685 96.471924,698.874084 114.299019,698.889038 
	C119.963287,698.893738 125.633911,698.760315 131.290527,698.978333 
	C144.724243,699.496094 151.301773,706.363403 151.350433,719.693848 
	C151.373535,726.024902 151.192276,732.363037 151.453384,738.683533 
	C151.551010,741.046875 152.642807,743.369202 153.628769,746.110107 
	C153.976227,746.509949 154.000000,747.000000 154.000000,747.000000 
	C113.312439,747.000000 72.624878,747.000000 31.284784,746.728760 
	C30.545092,746.257263 30.457930,746.056946 30.370768,745.856628 
	C30.520512,745.752930 30.670258,745.649170 31.198545,745.241089 
	C31.880419,744.699585 31.960945,744.401978 31.818665,744.044128 
z"/>
<path fill="#FEFFFE" opacity="1.000000" stroke="none" 
	d="
M940.000000,625.000000 
	C940.000000,665.575684 940.000000,706.151428 940.000000,747.000000 
	C915.646423,747.000000 891.291870,747.000000 866.349854,746.678101 
	C865.724548,745.900818 865.686707,745.445557 865.930176,744.664917 
	C866.483704,742.396912 866.990662,740.454590 866.993286,738.511597 
	C867.038696,704.907410 867.021912,671.303162 867.018921,637.698914 
	C867.018677,634.913696 867.018921,632.128540 867.018921,628.636841 
	C869.857544,628.636841 872.128357,628.636292 874.399170,628.636963 
	C893.197571,628.642456 911.998840,628.812622 930.791626,628.489807 
	C933.880188,628.436829 936.931458,626.217957 940.000000,625.000000 
z"/>
<path fill="#23C57A" opacity="1.000000" stroke="none" 
	d="
M940.000000,624.531494 
	C936.931458,626.217957 933.880188,628.436829 930.791626,628.489807 
	C911.998840,628.812622 893.197571,628.642456 874.399170,628.636963 
	C872.128357,628.636292 869.857544,628.636841 867.018921,628.636841 
	C867.018921,632.128540 867.018677,634.913696 867.018921,637.698914 
	C867.021912,671.303162 867.038696,704.907410 866.993286,738.511597 
	C866.990662,740.454590 866.483704,742.396912 865.576782,744.828674 
	C856.085571,745.515503 847.229126,745.713196 838.372620,745.910889 
	C837.624329,742.967651 836.237915,740.027222 836.225220,737.080811 
	C836.078003,702.922913 836.037598,668.763489 836.256653,634.606323 
	C836.288086,629.708618 834.837646,628.481628 830.095093,628.545898 
	C811.103088,628.803345 792.105530,628.669006 773.109985,628.644653 
	C764.885742,628.634094 763.836182,627.566589 763.826538,619.572449 
	C763.821899,615.740051 763.780029,611.907532 763.802368,608.075378 
	C763.840088,601.617676 764.588440,600.856445 771.015686,600.855591 
	C817.504700,600.849426 863.993713,600.856323 910.482727,600.857300 
	C918.147583,600.857422 925.820190,600.659424 933.471924,600.974243 
	C935.456360,601.055908 937.375366,602.730286 939.662231,603.836548 
	C940.000000,610.687622 940.000000,617.375305 940.000000,624.531494 
z"/>
<path fill="#33C180" opacity="1.000000" stroke="none" 
	d="
M461.212463,685.805115 
	C475.353394,703.488098 467.889282,731.870483 446.470245,740.384216 
	C439.445770,743.176392 431.800537,744.406738 424.219574,746.675659 
	C420.638702,747.000000 417.277435,747.000000 413.454224,746.761963 
	C412.992279,746.523865 412.978912,746.047913 413.203735,745.765869 
	C415.757904,744.749695 418.172058,743.184326 420.403168,743.412048 
	C439.312592,745.342102 457.367157,735.777527 463.983398,718.739502 
	C467.192078,710.476746 468.361603,701.482056 462.635376,693.125977 
	C461.359344,691.263977 461.415314,688.489075 460.946411,686.051941 
	C461.034760,685.969360 461.212463,685.805115 461.212463,685.805115 
z"/>
<path fill="#97FFCE" opacity="1.000000" stroke="none" 
	d="
M1.661783,603.988281 
	C1.931317,644.076477 1.995289,684.124207 2.018370,724.171875 
	C2.022097,730.638611 1.843901,737.105408 1.374900,743.786133 
	C1.000000,697.645752 1.000000,651.291565 1.000000,604.468628 
	C1.000000,604.000000 1.442644,603.947693 1.661783,603.988281 
z"/>
<path fill="#47DF97" opacity="1.000000" stroke="none" 
	d="
M500.036469,746.258789 
	C543.194275,745.983521 586.373962,745.953247 629.553650,745.945129 
	C630.528198,745.944946 631.502686,746.196777 632.738647,746.665527 
	C588.979126,747.000000 544.958191,747.000000 500.468658,747.000000 
	C500.000000,747.000000 500.058380,746.506348 500.036469,746.258789 
z"/>
<path fill="#45DF97" opacity="1.000000" stroke="none" 
	d="
M412.978912,746.047974 
	C412.978912,746.047913 412.992279,746.523865 412.996155,746.761963 
	C370.645782,747.000000 328.291534,747.000000 285.468658,747.000000 
	C285.065979,746.824463 285.131958,746.648926 285.601196,746.197937 
	C286.683228,745.922058 287.361969,745.921570 288.504517,745.949036 
	C330.305145,746.000610 371.642029,746.024292 412.978912,746.047974 
z"/>
<path fill="#4CE39C" opacity="1.000000" stroke="none" 
	d="
M29.951077,745.865112 
	C30.457930,746.056946 30.545092,746.257263 30.816128,746.728760 
	C21.000000,747.000000 11.000000,747.000000 1.000000,746.500000 
	C10.510463,745.957886 20.020926,745.915710 29.951077,745.865112 
z"/>
<path fill="#4CE39C" opacity="1.000000" stroke="none" 
	d="
M838.302246,746.190918 
	C847.229126,745.713196 856.085571,745.515503 865.295471,745.154053 
	C865.686707,745.445557 865.724548,745.900818 865.881226,746.678101 
	C856.979126,747.000000 847.958191,747.000000 838.468628,747.000000 
	C838.077271,746.823608 838.154541,746.647278 838.302246,746.190918 
z"/>
<path fill="#4CE39C" opacity="1.000000" stroke="none" 
	d="
M739.706055,745.920654 
	C739.748535,746.102295 739.791016,746.283936 739.916748,746.732788 
	C731.312439,747.000000 722.624817,747.000000 713.468628,747.000000 
	C713.065674,746.822083 713.131348,746.644226 713.711548,746.181274 
	C722.719360,745.904419 731.212708,745.912537 739.706055,745.920654 
z"/>
<path fill="#4CE39C" opacity="1.000000" stroke="none" 
	d="
M245.086487,746.057983 
	C245.086487,746.057983 245.017731,746.526672 245.008865,746.763306 
	C236.312439,747.000000 227.624863,747.000000 218.468658,747.000000 
	C218.121536,746.815125 218.243088,746.630310 218.928894,746.162842 
	C228.024261,745.939514 236.555374,745.998779 245.086487,746.057983 
z"/>
<path fill="#4CE39C" opacity="1.000000" stroke="none" 
	d="
M154.468658,747.000000 
	C154.000000,747.000000 153.976227,746.509949 153.966324,746.264771 
	C162.688812,746.008423 171.421204,745.997192 180.627899,746.027283 
	C181.102219,746.068604 181.046478,746.533813 181.023239,746.766907 
	C172.312439,747.000000 163.624863,747.000000 154.468658,747.000000 
z"/>
<path fill="#040404" opacity="1.000000" stroke="none" 
	d="
M519.000122,538.826172 
	C570.989197,538.829285 622.478210,538.822632 673.967285,538.846069 
	C681.634766,538.849609 686.034668,543.831787 684.750854,550.885681 
	C683.947144,555.301514 680.493164,558.418579 675.719360,558.798096 
	C673.401062,558.982300 671.056335,558.836243 668.723572,558.836304 
	C535.585144,558.836609 402.446686,558.837463 269.308258,558.834290 
	C261.325104,558.834045 257.267914,555.499084 257.159637,548.896545 
	C257.063660,543.040771 260.707825,539.122192 266.553680,538.838379 
	C267.883636,538.773804 269.219330,538.826294 270.552368,538.826294 
	C353.201599,538.826172 435.850830,538.826172 519.000122,538.826172 
z"/>
<path fill="#030303" opacity="1.000000" stroke="none" 
	d="
M526.000122,503.822784 
	C560.156311,503.826599 593.812439,503.810394 627.468628,503.849640 
	C634.995300,503.858398 638.706360,507.421143 638.523804,514.180481 
	C638.372864,519.768677 634.797119,523.511597 629.181091,523.828491 
	C627.022156,523.950195 624.850403,523.842957 622.684448,523.842957 
	C520.216370,523.842651 417.748260,523.844055 315.280151,523.839966 
	C306.925659,523.839600 302.600494,519.522888 303.515350,512.148193 
	C304.095062,507.475220 307.301636,504.336365 312.070221,503.905334 
	C313.724060,503.755859 315.399353,503.825439 317.064850,503.825348 
	C386.543243,503.822357 456.021667,503.822754 526.000122,503.822784 
z"/>
<path fill="#24C47A" opacity="1.000000" stroke="none" 
	d="
M740.021362,745.676758 
	C731.212708,745.912537 722.719360,745.904419 713.783203,745.906067 
	C712.605774,743.984680 711.235168,742.055237 711.229858,740.122070 
	C711.108521,695.835449 711.165283,651.548340 711.092773,607.261536 
	C711.085144,602.599182 712.871460,600.607056 717.631958,600.800110 
	C723.615723,601.042847 729.625549,601.047485 735.608032,600.787109 
	C740.220520,600.586426 741.962341,602.824951 742.049744,607.003357 
	C742.098450,609.333130 742.051697,611.664795 742.051514,613.995605 
	C742.047363,655.285889 742.073608,696.576294 741.967102,737.866333 
	C741.960632,740.389954 740.904358,742.910767 740.021362,745.676758 
z"/>
<path fill="#21C579" opacity="1.000000" stroke="none" 
	d="
M245.428009,745.854004 
	C236.555374,745.998779 228.024261,745.939514 219.077637,745.866211 
	C218.512787,745.742432 218.363434,745.632690 218.047089,745.057495 
	C217.744614,744.303467 217.522827,744.118286 217.214752,744.036377 
	C217.021408,742.227722 216.660843,740.419128 216.659210,738.610352 
	C216.620117,695.319824 216.611420,652.029236 216.619598,608.738708 
	C216.620987,601.340332 217.151672,600.867065 224.569550,600.869873 
	C230.064117,600.871887 235.561630,600.967407 241.052277,600.817627 
	C245.170929,600.705200 247.209946,602.228577 247.203064,606.600830 
	C247.132874,651.223022 247.157898,695.845398 247.072708,740.467590 
	C247.069412,742.195923 246.223038,743.922607 245.428009,745.854004 
z"/>
<path fill="#33C180" opacity="1.000000" stroke="none" 
	d="
M288.040741,745.921143 
	C287.361969,745.921570 286.683228,745.922058 285.665588,745.924072 
	C284.584869,743.996765 283.201630,742.069824 283.195465,740.138550 
	C283.055420,695.986023 283.046753,651.833069 283.070740,607.680176 
	C283.073914,601.862122 284.252197,600.828918 290.249786,600.827026 
	C331.403870,600.814209 372.558289,600.728882 413.711853,600.878723 
	C427.042145,600.927246 440.019531,603.115967 451.047028,611.370789 
	C466.970428,623.290527 469.109436,647.966187 455.345520,662.900757 
	C454.962555,662.965027 454.813324,662.813782 454.881653,662.453979 
	C457.722504,654.437561 463.003998,648.020935 462.294067,638.718933 
	C461.186920,624.213135 453.008911,612.289490 439.460419,607.121338 
	C430.373993,603.655273 420.980743,603.282898 411.739380,603.181458 
	C371.616089,602.741333 331.485199,602.989563 291.357086,602.996399 
	C285.820801,602.997314 284.425842,604.690369 285.032043,610.217834 
	C285.464264,614.158691 285.938599,618.122498 285.950836,622.077393 
	C286.031769,648.218689 285.992889,674.360413 285.992554,700.501953 
	C285.992432,710.825378 286.359375,721.167542 285.834381,731.464233 
	C285.573151,736.587463 284.166016,741.557678 288.040741,745.921143 
z"/>
<path fill="#33C180" opacity="1.000000" stroke="none" 
	d="
M441.990753,673.009399 
	C449.593231,675.087219 456.046906,678.964172 461.116333,685.482422 
	C461.212463,685.805115 461.034760,685.969360 460.616882,685.966614 
	C457.175537,683.987061 454.107880,682.073914 451.140686,680.016052 
	C447.977661,677.822449 444.909668,675.491821 441.847900,673.168213 
	C441.895630,673.115417 441.990753,673.009399 441.990753,673.009399 
z"/>
<path fill="#33C180" opacity="1.000000" stroke="none" 
	d="
M450.063446,667.066345 
	C447.652802,668.412109 445.242157,669.757874 442.414978,671.044739 
	C441.998444,670.985840 441.888733,670.846130 442.042145,670.599731 
	C443.390900,666.315857 446.976471,667.363037 449.862732,666.852051 
	C449.929565,666.923584 450.063446,667.066345 450.063446,667.066345 
z"/>
<path fill="#33C180" opacity="1.000000" stroke="none" 
	d="
M455.036804,663.041016 
	C453.646515,664.403320 452.181976,665.689575 450.390442,667.021118 
	C450.063446,667.066345 449.929565,666.923584 449.973694,666.532410 
	C451.616302,665.032104 453.214813,663.922974 454.813354,662.813843 
	C454.813324,662.813782 454.962555,662.965027 455.036804,663.041016 
z"/>
<path fill="#33C180" opacity="1.000000" stroke="none" 
	d="
M442.055176,671.054199 
	C442.014923,671.542847 441.917969,671.963196 441.905884,672.696472 
	C441.990753,673.009399 441.895630,673.115417 441.523865,673.101990 
	C440.589355,672.684509 440.026642,672.280457 439.463928,671.876465 
	C440.272186,671.533020 441.080475,671.189575 441.888733,670.846191 
	C441.888733,670.846130 441.998444,670.985840 442.055176,671.054199 
z"/>
<path fill="#4CE39C" opacity="1.000000" stroke="none" 
	d="
M217.190140,744.283569 
	C217.522827,744.118286 217.744614,744.303467 217.916840,744.811890 
	C217.567276,745.058960 217.304596,744.892029 217.190140,744.283569 
z"/>
<path fill="#FCFCFC" opacity="1.000000" stroke="none" 
	d="
M408.999695,262.504211 
	C377.670074,262.504211 346.840271,262.572540 316.010986,262.473572 
	C301.854309,262.428131 288.113068,260.079803 275.877228,252.491379 
	C257.618073,241.167435 250.734711,223.630585 249.845764,203.069809 
	C248.955078,182.468307 253.788879,162.958740 263.178650,144.902359 
	C270.274872,131.256409 274.594971,117.688522 270.524902,102.420853 
	C275.893799,100.744751 280.860168,99.194313 285.148071,97.855675 
	C289.983307,99.927795 294.677551,101.813774 299.235657,103.985550 
	C300.310181,104.497520 301.130432,105.871078 301.703430,107.028595 
	C302.506531,108.650963 302.968384,110.442238 303.694427,112.495529 
	C283.936432,125.662407 275.813721,145.817139 272.712006,168.332901 
	C271.645081,176.077927 271.929260,184.448242 273.669586,192.058762 
	C278.962952,215.206558 298.450836,225.402390 322.558746,218.501923 
	C335.880829,214.688705 347.457153,207.552032 358.304474,199.180115 
	C389.666901,174.974640 420.962616,150.682709 452.284363,126.424484 
	C465.357269,116.299698 476.679932,116.335503 489.858459,126.525513 
	C522.383118,151.674515 554.849426,176.899704 587.477478,201.913788 
	C597.145874,209.326004 607.755676,215.202911 619.608765,218.533279 
	C645.791565,225.889877 666.151611,213.541931 669.383728,186.542664 
	C672.364075,161.646225 665.017822,139.144882 647.875488,120.372795 
	C645.107971,117.342102 641.587158,114.999268 638.367554,112.299026 
	C639.246399,109.831741 640.186523,107.192261 640.864563,105.288765 
	C646.296997,102.691269 651.297302,100.300423 656.617004,97.756844 
	C660.844971,99.077789 665.831787,100.635826 670.641724,102.138603 
	C670.641724,109.388519 669.898132,116.908661 670.886719,124.193756 
	C671.622864,129.619339 674.155151,134.964203 676.658997,139.958252 
	C686.634766,159.855728 692.877380,180.552521 692.197693,203.088943 
	C691.178894,236.866287 669.819458,259.386230 635.942810,261.945709 
	C630.967651,262.321594 625.964600,262.478851 620.974365,262.481232 
	C550.482788,262.514893 479.991241,262.504181 408.999695,262.504211 
M462.447449,166.705078 
	C441.472198,171.364609 428.542145,190.752380 431.953766,212.428360 
	C435.193054,233.009613 455.394135,247.705566 476.460693,244.806427 
	C497.698273,241.883759 513.258301,221.860245 510.441132,201.078659 
	C507.211731,177.256409 487.564575,162.826508 462.447449,166.705078 
z"/>
<path fill="#FDFDFD" opacity="1.000000" stroke="none" 
	d="
M425.171783,313.999908 
	C425.171783,303.371216 425.171783,293.242523 425.171783,282.814514 
	C437.166290,282.814514 448.765350,282.814514 460.681763,282.814514 
	C460.681763,344.504364 460.681763,406.375366 460.681763,468.540588 
	C449.135254,468.540588 437.546265,468.540588 425.171783,468.540588 
	C425.171783,417.269958 425.171783,365.884949 425.171783,313.999908 
z"/>
<path fill="#FDFDFD" opacity="1.000000" stroke="none" 
	d="
M516.825500,413.000092 
	C516.825500,431.775208 516.825500,450.050293 516.825500,468.576599 
	C504.778076,468.576599 493.198303,468.576599 481.310059,468.576599 
	C481.310059,406.679443 481.310059,344.819794 481.310059,282.736572 
	C492.942535,282.736572 504.525269,282.736572 516.825500,282.736572 
	C516.825500,326.062683 516.825500,369.281372 516.825500,413.000092 
z"/>
<path fill="#F7F7F7" opacity="1.000000" stroke="none" 
	d="
M357.602295,47.464005 
	C353.817566,51.686501 349.593719,52.691628 344.865051,50.238277 
	C340.735443,48.095730 339.054321,44.461906 339.786041,39.898430 
	C340.523071,35.301800 343.423096,31.935522 347.920959,31.953068 
	C351.129578,31.965582 355.031494,33.512394 357.364410,35.711079 
	C360.663025,38.819927 360.131531,43.230621 357.602295,47.464005 
z"/>
<path fill="#F4F4F4" opacity="1.000000" stroke="none" 
	d="
M595.090088,51.114861 
	C588.064331,51.802555 583.943970,49.189667 582.748047,43.590141 
	C581.694458,38.657158 584.431396,33.708664 589.118774,32.071583 
	C593.789734,30.440237 599.071472,32.568707 601.343445,36.997990 
	C604.158569,42.486149 601.947510,47.767643 595.090088,51.114861 
z"/>
<path fill="#F8F8F8" opacity="1.000000" stroke="none" 
	d="
M654.122620,29.676617 
	C651.285950,34.001617 647.618835,35.895748 642.907349,34.659805 
	C638.924866,33.615093 636.399719,30.851162 635.596558,26.733757 
	C634.822266,22.764065 636.270813,19.552765 639.360168,17.127159 
	C643.039124,14.238547 646.959229,14.172838 650.855652,16.711708 
	C655.118530,19.489384 656.139954,23.391338 654.122620,29.676617 
z"/>
<path fill="#F8F8F8" opacity="1.000000" stroke="none" 
	d="
M563.365295,109.724754 
	C559.567078,105.828728 558.742798,101.659607 561.188904,97.210533 
	C563.187195,93.575943 566.551025,91.674522 570.692566,92.121094 
	C575.195068,92.606598 578.293152,95.225250 579.531494,99.688919 
	C580.677673,103.820419 579.254517,107.277832 576.055603,109.839767 
	C572.068054,113.033318 567.826050,112.813110 563.365295,109.724754 
z"/>
<path fill="#F7F7F7" opacity="1.000000" stroke="none" 
	d="
M370.463928,92.181892 
	C376.916992,92.379440 380.524658,94.806793 381.848969,99.512001 
	C383.021820,103.678986 381.144226,108.361610 377.288086,110.632729 
	C373.259003,113.005699 369.291412,112.603470 365.752747,109.723671 
	C359.317230,104.486397 361.486450,95.916954 370.463928,92.181892 
z"/>
<path fill="#F8F8F8" opacity="1.000000" stroke="none" 
	d="
M239.355896,49.496880 
	C236.385193,43.402439 237.147217,38.608280 241.298203,35.526531 
	C245.069092,32.726971 250.215057,32.859818 253.674850,35.845997 
	C257.986053,39.567051 258.505707,45.899624 254.836502,50.002075 
	C250.709442,54.616459 245.049194,54.538731 239.355896,49.496880 
z"/>
<path fill="#F7F7F7" opacity="1.000000" stroke="none" 
	d="
M297.735504,34.974369 
	C291.402924,34.445179 287.735870,31.629128 286.895782,26.987474 
	C286.018707,22.141539 288.436218,17.632771 292.938904,15.716768 
	C296.941132,14.013730 301.712067,15.307061 304.501434,18.851202 
	C309.165283,24.777058 306.313660,31.984947 297.735504,34.974369 
z"/>
<path fill="#F8F8F8" opacity="1.000000" stroke="none" 
	d="
M685.696289,47.829865 
	C683.949829,40.047287 686.315491,35.329990 692.322388,33.875206 
	C697.910583,32.521812 702.839722,35.552784 704.367859,41.281975 
	C705.528809,45.634285 703.293152,50.353207 699.107483,52.385250 
	C694.299316,54.719517 689.912659,53.323837 685.696289,47.829865 
z"/>
<path fill="#F7F7F7" opacity="1.000000" stroke="none" 
	d="
M349.832581,352.004517 
	C350.895447,345.412323 354.636627,341.858917 359.922302,342.009613 
	C364.682739,342.145294 368.705933,345.836395 369.374084,350.681152 
	C370.062317,355.671265 366.910217,360.235168 361.967133,361.613861 
	C357.297913,362.916138 350.093658,359.648590 349.832581,352.004517 
z"/>
<path fill="#F7F7F7" opacity="1.000000" stroke="none" 
	d="
M154.085449,401.982422 
	C160.694016,401.129608 164.745071,403.231720 166.514908,408.175751 
	C167.964844,412.226166 166.304993,417.138733 162.646759,419.624207 
	C158.944839,422.139374 153.468475,421.623413 150.239441,418.455231 
	C145.016327,413.330475 146.470795,406.473755 154.085449,401.982422 
z"/>
<path fill="#F8F8F8" opacity="1.000000" stroke="none" 
	d="
M169.727203,539.008118 
	C175.461472,540.003784 178.466110,543.529480 178.698639,548.608154 
	C178.900406,553.014771 176.497253,556.508911 172.022903,558.114868 
	C167.470657,559.748657 163.323532,558.476196 161.158508,554.597717 
	C159.665894,551.923828 159.246689,547.907349 159.997833,544.903442 
	C161.051285,540.690430 164.842880,538.828979 169.727203,539.008118 
z"/>
<path fill="#F7F7F7" opacity="1.000000" stroke="none" 
	d="
M593.527954,409.669128 
	C599.796326,411.661255 602.565125,415.373291 601.987610,420.593658 
	C601.480286,425.178467 597.665894,428.827942 593.048462,429.146301 
	C587.863281,429.503754 583.668762,426.407349 582.437927,421.313568 
	C580.962708,415.208405 585.561829,410.183929 593.527954,409.669128 
z"/>
<path fill="#F8F8F8" opacity="1.000000" stroke="none" 
	d="
M340.089874,417.498749 
	C341.732574,410.360474 350.230988,406.628448 356.392242,412.105591 
	C359.590698,414.948914 360.812927,418.741791 358.999451,422.949219 
	C357.176147,427.179352 353.982269,429.421082 349.239075,429.171173 
	C344.453674,428.919067 341.653534,426.147339 340.230988,421.856598 
	C339.830200,420.647705 340.083466,419.221985 340.089874,417.498749 
z"/>
<path fill="#F8F8F8" opacity="1.000000" stroke="none" 
	d="
M774.997192,411.093811 
	C776.370789,404.836700 779.593872,401.729095 784.506836,401.522125 
	C789.100098,401.328674 793.096375,404.355011 794.409912,409.021790 
	C795.594055,413.228851 793.657593,417.698273 789.650818,420.006104 
	C783.251648,423.691956 776.300049,419.655151 774.997192,411.093811 
z"/>
<path fill="#F8F8F8" opacity="1.000000" stroke="none" 
	d="
M765.129333,543.255676 
	C769.671753,538.751587 773.631592,537.791077 777.812256,540.082825 
	C781.711731,542.220276 783.566223,545.645874 782.974182,550.040588 
	C782.355042,554.636719 779.508972,558.103455 774.997131,558.298584 
	C771.931030,558.431091 768.109070,557.014404 765.800354,554.966003 
	C762.399109,551.948242 762.400085,547.607544 765.129333,543.255676 
z"/>
<path fill="#F7F7F7" opacity="1.000000" stroke="none" 
	d="
M807.043884,508.049255 
	C812.672668,504.260437 817.970093,504.746246 821.449402,509.113678 
	C824.589355,513.054932 824.220581,518.747742 820.598694,522.250183 
	C816.766113,525.956116 811.049500,526.055603 807.078369,522.485474 
	C802.932129,518.757935 802.810120,513.700256 807.043884,508.049255 
z"/>
<path fill="#F8F8F8" opacity="1.000000" stroke="none" 
	d="
M119.895584,510.040039 
	C123.087448,506.079956 126.717079,504.213776 131.478668,505.932343 
	C135.665039,507.443329 137.936249,510.517456 138.134140,514.927612 
	C138.325241,519.187012 136.233063,522.220337 132.461838,524.083618 
	C128.608734,525.987305 124.958878,525.402466 121.841354,522.600891 
	C118.011345,519.159180 117.531586,514.953430 119.895584,510.040039 
z"/>
<path fill="#F8F8F8" opacity="1.000000" stroke="none" 
	d="
M826.033569,471.111420 
	C821.012878,470.679504 817.270874,468.392334 816.736267,463.844025 
	C816.377747,460.793152 817.449097,456.910522 819.274658,454.423370 
	C821.967651,450.754486 826.366577,450.255249 830.500916,452.501495 
	C834.310669,454.571320 836.348022,457.914978 835.889160,462.376068 
	C835.415649,466.980042 832.103149,469.949371 826.033569,471.111420 
z"/>
<path fill="#F8F8F8" opacity="1.000000" stroke="none" 
	d="
M119.683319,452.098022 
	C125.088631,455.686432 126.925774,459.484711 125.529190,463.821625 
	C124.111649,468.223602 121.060242,470.864258 116.426941,471.053070 
	C111.546280,471.252045 107.623352,468.794830 106.805870,464.110992 
	C106.285133,461.127441 107.398590,457.270569 109.080566,454.636078 
	C111.298592,451.161957 115.285057,450.517487 119.683319,452.098022 
z"/>
<path fill="#F7F7F7" opacity="1.000000" stroke="none" 
	d="
M573.181580,355.647522 
	C571.778320,350.639923 572.823975,346.697540 576.847351,343.857391 
	C580.318909,341.406708 584.022583,341.378418 587.597717,343.613861 
	C591.198608,345.865356 592.657104,349.296509 592.072876,353.448547 
	C591.448425,357.886749 588.667175,360.702545 584.418091,361.603516 
	C579.411011,362.665222 575.719971,360.437683 573.181580,355.647522 
z"/>
<path fill="#FAFFFD" opacity="1.000000" stroke="none" 
	d="
M591.000000,685.030212 
	C603.151978,685.032227 614.824585,684.624695 626.446960,685.212097 
	C632.102112,685.497986 637.915161,687.010437 643.199890,689.114990 
	C649.133362,691.477844 651.769775,697.049744 651.701050,703.239624 
	C651.633240,709.347778 648.621277,714.148438 642.580505,716.264099 
	C639.170410,717.458435 635.563477,718.823364 632.038208,718.842773 
	C597.915771,719.030212 563.791870,718.949951 529.668396,718.932129 
	C529.026184,718.931763 528.384155,718.760437 527.371948,718.616150 
	C527.371948,707.650757 527.371948,696.757141 527.371948,685.030212 
	C548.390625,685.030212 569.445312,685.030212 591.000000,685.030212 
z"/>
<path fill="#F8FEFC" opacity="1.000000" stroke="none" 
	d="
M535.067139,627.849854 
	C565.543823,627.844299 595.531555,627.774414 625.518372,627.908630 
	C629.619507,627.926941 633.862183,628.469971 637.782654,629.634277 
	C644.770325,631.709595 648.313171,636.989319 648.138306,643.776978 
	C647.960510,650.676880 644.302673,655.213928 636.947388,657.121094 
	C633.587585,657.992310 630.083618,658.776489 626.641907,658.789795 
	C594.489136,658.914307 562.335754,658.864319 530.182495,658.853577 
	C529.371948,658.853333 528.561401,658.724243 527.383057,658.623962 
	C527.383057,648.586182 527.383057,638.687500 527.383057,628.186340 
	C529.747009,628.075806 532.162415,627.962891 535.067139,627.849854 
z"/>
<path fill="#4CE39C" opacity="1.000000" stroke="none" 
	d="
M31.619801,744.151489 
	C31.960945,744.401978 31.880419,744.699585 31.340708,745.007751 
	C31.075994,744.753723 31.181530,744.480469 31.619801,744.151489 
z"/>
<path fill="#1EC678" opacity="1.000000" stroke="none" 
	d="
M442.042175,670.599731 
	C441.080475,671.189575 440.272186,671.533020 439.463928,671.876465 
	C440.026642,672.280457 440.589355,672.684509 441.476135,673.154785 
	C444.909668,675.491821 447.977661,677.822449 451.140686,680.016052 
	C454.107880,682.073914 457.175537,683.987061 460.528503,686.049194 
	C461.415314,688.489075 461.359344,691.263977 462.635376,693.125977 
	C468.361603,701.482056 467.192078,710.476746 463.983398,718.739502 
	C457.367157,735.777527 439.312592,745.342102 420.403168,743.412048 
	C418.172058,743.184326 415.757904,744.749695 413.203735,745.765930 
	C371.642029,746.024292 330.305145,746.000610 288.504517,745.949036 
	C284.166016,741.557678 285.573151,736.587463 285.834381,731.464233 
	C286.359375,721.167542 285.992432,710.825378 285.992554,700.501953 
	C285.992889,674.360413 286.031769,648.218689 285.950836,622.077393 
	C285.938599,618.122498 285.464264,614.158691 285.032043,610.217834 
	C284.425842,604.690369 285.820801,602.997314 291.357086,602.996399 
	C331.485199,602.989563 371.616089,602.741333 411.739380,603.181458 
	C420.980743,603.282898 430.373993,603.655273 439.460419,607.121338 
	C453.008911,612.289490 461.186920,624.213135 462.294067,638.718933 
	C463.003998,648.020935 457.722504,654.437561 454.881653,662.454041 
	C453.214813,663.922974 451.616302,665.032104 449.906860,666.460876 
	C446.976471,667.363037 443.390900,666.315857 442.042175,670.599731 
M312.515961,685.511169 
	C312.027161,690.724060 311.402222,695.928894 311.094604,701.152405 
	C310.866577,705.024170 310.815735,708.940247 311.146179,712.797180 
	C311.323822,714.870667 309.164612,718.006958 313.059235,718.940857 
	C313.059235,718.940857 313.104706,718.838013 313.187958,719.664001 
	C314.818115,720.108337 316.447327,720.936279 318.078552,720.940308 
	C349.156464,721.016541 380.234650,721.000366 411.312775,720.988892 
	C415.051514,720.987488 418.791412,720.945190 422.528687,720.844421 
	C427.261383,720.716858 434.111481,715.883789 435.127472,711.595825 
	C435.372040,711.380798 435.616608,711.165710 436.607086,710.888245 
	C440.611206,707.617249 439.695953,703.307678 438.962036,699.130859 
	C437.464447,690.608093 426.171265,681.952698 418.348022,683.083008 
	C415.084991,683.554443 411.774872,683.942200 408.485199,683.949402 
	C378.520172,684.014954 348.554871,683.966797 318.589874,684.039490 
	C316.743713,684.043945 314.899292,684.788696 313.041962,685.041382 
	C313.041962,685.041382 313.189331,685.056030 312.515961,685.511169 
M314.560974,659.604858 
	C318.372070,660.398193 322.186493,661.891602 325.993774,661.873718 
	C355.682281,661.734253 385.370789,661.384949 415.055756,660.888489 
	C420.309692,660.800659 425.772125,660.242493 429.140167,654.462036 
	C429.345398,654.193420 429.615265,654.034607 430.434235,653.792175 
	C430.616241,653.504883 430.798279,653.217590 431.125916,652.469177 
	C431.316650,652.179871 431.584198,652.015808 432.685181,651.925354 
	C436.435669,648.564331 437.926727,639.123962 435.387573,635.872742 
	C429.966248,628.931213 422.556000,626.096985 414.137817,626.054626 
	C384.514374,625.905640 354.889679,625.997253 325.265472,625.997498 
	C320.617645,625.997559 315.969849,625.997559 311.091949,625.997559 
	C311.091949,636.921753 311.049377,646.895081 311.186493,656.865845 
	C311.195770,657.540894 312.558472,658.197266 313.671844,658.861755 
	C313.671844,658.861755 314.012085,659.031189 314.560974,659.604858 
M418.126556,676.799255 
	C420.916565,677.345520 423.706543,677.891846 426.749634,678.487732 
	C423.780304,674.495605 421.418640,674.001587 418.126556,676.799255 
M448.899567,658.708130 
	C450.108459,658.708130 451.317352,658.708130 453.569611,658.708130 
	C452.033142,656.542969 451.111694,655.244446 450.190216,653.945984 
	C449.747101,654.058228 449.303986,654.170471 448.860870,654.282715 
	C448.692108,655.588989 448.523346,656.895264 448.899567,658.708130 
M287.704742,606.566956 
	C287.989227,606.295471 288.273712,606.023987 288.558197,605.752502 
	C288.445679,605.634766 288.241455,605.408569 288.233826,605.414978 
	C287.933838,605.668396 287.651733,605.942871 287.704742,606.566956 
M439.565887,715.295044 
	C439.294250,715.010498 439.022614,714.725891 438.751007,714.441345 
	C438.633270,714.554077 438.406952,714.758423 438.413483,714.766174 
	C438.666931,715.066406 438.941711,715.348572 439.565887,715.295044 
z"/>
<path fill="#040404" opacity="1.000000" stroke="none" 
	d="
M462.860718,166.570847 
	C487.564575,162.826508 507.211731,177.256409 510.441132,201.078659 
	C513.258301,221.860245 497.698273,241.883759 476.460693,244.806427 
	C455.394135,247.705566 435.193054,233.009613 431.953766,212.428360 
	C428.542145,190.752380 441.472198,171.364609 462.860718,166.570847 
M486.782227,217.133728 
	C490.329773,211.949234 491.648804,206.373352 489.968109,200.178604 
	C487.288147,190.300659 476.848633,183.954437 466.770172,186.156281 
	C456.718689,188.352219 449.756042,198.612976 451.663849,208.581833 
	C453.202087,216.619583 457.880432,222.072739 465.791992,224.272537 
	C473.945679,226.539673 480.802155,224.054230 486.782227,217.133728 
z"/>
<path fill="#FAFFFD" opacity="1.000000" stroke="none" 
	d="
M435.861206,710.950684 
	C435.616608,711.165710 435.372040,711.380798 434.770691,711.970093 
	C429.809204,716.989319 423.976715,718.871094 417.702667,718.886353 
	C382.836945,718.971252 347.970734,718.873352 313.104706,718.838013 
	C313.104706,718.838013 313.059235,718.940857 313.085022,718.458191 
	C313.136963,707.002380 313.163147,696.029175 313.189331,685.056030 
	C313.189331,685.056030 313.041962,685.041382 313.513123,685.080872 
	C333.977753,685.099060 353.971161,685.065735 373.964600,685.060608 
	C387.626801,685.057068 401.300446,684.748901 414.948242,685.201660 
	C430.629181,685.721924 442.216461,694.982971 435.861206,710.950684 
z"/>
<path fill="#F8FEFC" opacity="1.000000" stroke="none" 
	d="
M429.949799,653.985718 
	C429.615265,654.034607 429.345398,654.193420 428.677124,654.718018 
	C422.270905,656.256165 416.341583,658.568604 410.382172,658.648926 
	C378.262909,659.081970 346.136230,658.960999 314.012085,659.031189 
	C314.012085,659.031189 313.671844,658.861755 313.427368,658.406250 
	C313.182922,648.051453 313.182922,638.152100 313.182922,628.200073 
	C315.051697,628.074158 316.204224,627.929138 317.356812,627.928650 
	C349.286896,627.914062 381.217010,627.898621 413.147003,627.944092 
	C415.453247,627.947388 417.797546,628.224121 420.058258,628.692017 
	C432.769470,631.322937 437.208923,640.094543 431.928558,651.976929 
	C431.584198,652.015808 431.316650,652.179871 430.795166,652.777588 
	C430.292908,653.385925 430.121368,653.685852 429.949799,653.985718 
z"/>
<path fill="#35C080" opacity="1.000000" stroke="none" 
	d="
M432.306885,651.951172 
	C437.208923,640.094543 432.769470,631.322937 420.058258,628.692017 
	C417.797546,628.224121 415.453247,627.947388 413.147003,627.944092 
	C381.217010,627.898621 349.286896,627.914062 317.356812,627.928650 
	C316.204224,627.929138 315.051697,628.074158 313.182922,628.200073 
	C313.182922,638.152100 313.182922,648.051453 313.237305,658.406555 
	C312.558472,658.197266 311.195770,657.540894 311.186493,656.865845 
	C311.049377,646.895081 311.091949,636.921753 311.091949,625.997559 
	C315.969849,625.997559 320.617645,625.997559 325.265472,625.997498 
	C354.889679,625.997253 384.514374,625.905640 414.137817,626.054626 
	C422.556000,626.096985 429.966248,628.931213 435.387573,635.872742 
	C437.926727,639.123962 436.435669,648.564331 432.306885,651.951172 
z"/>
<path fill="#35C080" opacity="1.000000" stroke="none" 
	d="
M314.286530,659.317993 
	C346.136230,658.960999 378.262909,659.081970 410.382172,658.648926 
	C416.341583,658.568604 422.270905,656.256165 428.588745,654.940735 
	C425.772125,660.242493 420.309692,660.800659 415.055756,660.888489 
	C385.370789,661.384949 355.682281,661.734253 325.993774,661.873718 
	C322.186493,661.891602 318.372070,660.398193 314.286530,659.317993 
z"/>
<path fill="#2FBF7D" opacity="1.000000" stroke="none" 
	d="
M313.146332,719.250977 
	C347.970734,718.873352 382.836945,718.971252 417.702667,718.886353 
	C423.976715,718.871094 429.809204,716.989319 434.726685,712.218262 
	C434.111481,715.883789 427.261383,720.716858 422.528687,720.844421 
	C418.791412,720.945190 415.051514,720.987488 411.312775,720.988892 
	C380.234650,721.000366 349.156464,721.016541 318.078552,720.940308 
	C316.447327,720.936279 314.818115,720.108337 313.146332,719.250977 
z"/>
<path fill="#2FBF7D" opacity="1.000000" stroke="none" 
	d="
M436.234131,710.919434 
	C442.216461,694.982971 430.629181,685.721924 414.948242,685.201660 
	C401.300446,684.748901 387.626801,685.057068 373.964600,685.060608 
	C353.971161,685.065735 333.977753,685.099060 313.519196,685.154663 
	C314.899292,684.788696 316.743713,684.043945 318.589874,684.039490 
	C348.554871,683.966797 378.520172,684.014954 408.485199,683.949402 
	C411.774872,683.942200 415.084991,683.554443 418.348022,683.083008 
	C426.171265,681.952698 437.464447,690.608093 438.962036,699.130859 
	C439.695953,703.307678 440.611206,707.617249 436.234131,710.919434 
z"/>
<path fill="#2FBF7D" opacity="1.000000" stroke="none" 
	d="
M312.852661,685.283569 
	C313.163147,696.029175 313.136963,707.002380 313.136475,718.435486 
	C309.164612,718.006958 311.323822,714.870667 311.146179,712.797180 
	C310.815735,708.940247 310.866577,705.024170 311.094604,701.152405 
	C311.402222,695.928894 312.027161,690.724060 312.852661,685.283569 
z"/>
<path fill="#22C579" opacity="1.000000" stroke="none" 
	d="
M417.849915,676.560547 
	C421.418640,674.001587 423.780304,674.495605 426.749634,678.487732 
	C423.706543,677.891846 420.916565,677.345520 417.849915,676.560547 
z"/>
<path fill="#22C579" opacity="1.000000" stroke="none" 
	d="
M448.627075,658.454834 
	C448.523346,656.895264 448.692108,655.588989 448.860870,654.282715 
	C449.303986,654.170471 449.747101,654.058228 450.190216,653.945984 
	C451.111694,655.244446 452.033142,656.542969 453.569611,658.708130 
	C451.317352,658.708130 450.108459,658.708130 448.627075,658.454834 
z"/>
<path fill="#33C180" opacity="1.000000" stroke="none" 
	d="
M287.536011,606.390747 
	C287.651733,605.942871 287.933838,605.668396 288.233826,605.414978 
	C288.241455,605.408569 288.445679,605.634766 288.558197,605.752502 
	C288.273712,606.023987 287.989227,606.295471 287.536011,606.390747 
z"/>
<path fill="#2FBF7D" opacity="1.000000" stroke="none" 
	d="
M439.389771,715.464111 
	C438.941711,715.348572 438.666931,715.066406 438.413483,714.766174 
	C438.406952,714.758423 438.633270,714.554077 438.751007,714.441345 
	C439.022614,714.725891 439.294250,715.010498 439.389771,715.464111 
z"/>
<path fill="#35C080" opacity="1.000000" stroke="none" 
	d="
M430.192017,653.888916 
	C430.121368,653.685852 430.292908,653.385925 430.722382,653.008179 
	C430.798279,653.217590 430.616241,653.504883 430.192017,653.888916 
z"/>
<path fill="#FBFBFB" opacity="1.000000" stroke="none" 
	d="
M486.541748,217.412231 
	C480.802155,224.054230 473.945679,226.539673 465.791992,224.272537 
	C457.880432,222.072739 453.202087,216.619583 451.663849,208.581833 
	C449.756042,198.612976 456.718689,188.352219 466.770172,186.156281 
	C476.848633,183.954437 487.288147,190.300659 489.968109,200.178604 
	C491.648804,206.373352 490.329773,211.949234 486.541748,217.412231 
z"/>
</svg>