<svg width="120" height="34" viewBox="0 0 120 34" fill="none" xmlns="http://www.w3.org/2000/svg">
<g clip-path="url(#clip0_4_3260)">
<path d="M13.3747 11.3342H11.0929C10.8924 9.84264 10.1671 9.09684 8.91864 9.09684C8.11512 9.09684 7.50881 9.28527 7.09972 9.66213C6.69063 10.039 6.48689 10.5995 6.48689 11.3453C6.48689 11.9027 6.71344 12.4252 7.16491 12.9129L12.0284 18.2238C12.9248 19.1992 13.373 20.249 13.373 21.3701V22.499C13.373 23.7056 12.9248 24.7491 12.0284 25.6311C11.132 26.5131 10.0514 26.9533 8.78988 26.9533H6.48689C4.96623 26.9533 3.82207 26.5811 3.05441 25.8338C2.28675 25.088 1.9021 23.9764 1.9021 22.499H4.20509C4.19042 22.6526 4.1839 22.7746 4.1839 22.8648C4.1839 23.4713 4.42349 23.9305 4.9043 24.244C5.38511 24.5575 5.91155 24.7143 6.48689 24.7143C7.30508 24.7143 7.89346 24.5227 8.25203 24.1395C8.6106 23.7563 8.78988 23.1989 8.78988 22.4674C8.78988 21.9021 8.56333 21.3796 8.11186 20.8998L3.24836 15.6095C2.35194 14.6405 1.90373 13.5922 1.90373 12.4616V11.3327C1.90373 10.1197 2.35194 9.07468 3.24836 8.19587C4.14479 7.31706 5.22538 6.87845 6.48689 6.87845H8.78988C11.6601 6.87845 13.1872 8.36371 13.3747 11.3327V11.3342Z" fill="#0D517F"/>
<path d="M15.2245 26.9532V11.3326H19.8093V26.9532H15.2245Z" fill="#0D517F"/>
<path d="M35.4347 11.3342V29.1922C35.4347 30.4051 34.9816 31.4502 34.0738 32.329C33.166 33.2078 32.0919 33.6464 30.85 33.6464H26.244C23.5384 33.6464 22.0112 32.1612 21.6592 29.1922H23.9622C24.0697 30.6696 24.8309 31.409 26.244 31.409H28.547C29.1712 31.409 29.7107 31.1905 30.167 30.7551C30.6218 30.3196 30.85 29.7987 30.85 29.1922V24.7174C30.6707 26.209 29.903 26.9548 28.547 26.9548H26.244C24.989 26.9548 23.91 26.5178 23.0103 25.6422C22.1106 24.7665 21.6592 23.7199 21.6592 22.5006V15.809C21.6592 14.5755 22.1107 13.521 23.0152 12.6469C23.9198 11.7728 24.9955 11.3342 26.244 11.3342H35.4347ZM30.85 13.5716H28.547C27.9162 13.5716 27.3735 13.7917 26.922 14.2303C26.4705 14.6689 26.244 15.1962 26.244 15.809V22.5006C26.244 23.1007 26.4689 23.6201 26.9171 24.0587C27.3653 24.4973 27.9081 24.7174 28.547 24.7174C29.1859 24.7174 29.7286 24.4973 30.1768 24.0587C30.625 23.6201 30.85 23.1007 30.85 22.5006V13.5716Z" fill="#0D517F"/>
<path d="M37.2634 26.9532V11.3326H41.8482V13.57C41.9411 12.8179 42.1807 12.2558 42.5637 11.8868C42.9467 11.5179 43.4765 11.3326 44.1512 11.3326H46.4542C47.7092 11.3326 48.7882 11.7728 49.6878 12.6548C50.5875 13.5368 51.039 14.5882 51.039 15.8074V26.9532H46.4542V15.8074C46.4542 15.1946 46.226 14.6674 45.7713 14.2287C45.3149 13.7901 44.7754 13.57 44.1512 13.57C43.527 13.57 42.9777 13.7901 42.5262 14.2287C42.0748 14.6674 41.8482 15.1946 41.8482 15.8074V26.9532H37.2634Z" fill="#0D517F"/>
<path d="M62.0585 18.0258V15.809C62.0585 15.1962 61.8303 14.6689 61.3755 14.2303C60.9192 13.7917 60.3797 13.5716 59.7555 13.5716H57.4525C56.0964 13.5716 55.3353 14.3174 55.1707 15.809H52.8677C53.2197 12.8258 54.7469 11.3342 57.4525 11.3342H62.0585C63.3134 11.3342 64.3924 11.7744 65.2921 12.6564C66.1918 13.5384 66.6432 14.5898 66.6432 15.809V26.9548H62.0585V24.7174C61.8792 26.209 61.1115 26.9548 59.7555 26.9548H57.4525C56.1975 26.9548 55.1185 26.5178 54.2188 25.6422C53.3191 24.7665 52.8677 23.7199 52.8677 22.5006V22.48C52.8677 21.2608 53.3191 20.2126 54.2237 19.3385C55.1283 18.4644 56.204 18.0258 57.4525 18.0258H62.0585ZM62.0585 20.2632H59.7555C59.1247 20.2632 58.582 20.4817 58.1305 20.9172C57.679 21.3526 57.4525 21.8736 57.4525 22.48V22.5006C57.4525 23.1007 57.6774 23.6201 58.1256 24.0587C58.5738 24.4973 59.1166 24.7174 59.7555 24.7174C60.3944 24.7174 60.9371 24.4973 61.3853 24.0587C61.8335 23.6201 62.0585 23.1007 62.0585 22.5006V20.2632Z" fill="#0D517F"/>
<path d="M70.775 6.88004H75.3598V11.3342H77.6628V13.5716H75.3598V22.5006C75.3598 23.2179 75.6043 23.7674 76.0916 24.1474C76.5789 24.5274 77.032 24.7175 77.4476 24.7175H77.6628V26.9548H75.3598C74.0966 26.9548 73.0177 26.5178 72.1213 25.6422C71.2248 24.7681 70.7766 23.7199 70.7766 22.5006V13.5716H68.4736V11.3342H70.7766V6.88004H70.775Z" fill="#0D517F"/>
<path d="M93.267 11.3342V26.9548H88.6822V24.7174C88.5029 26.209 87.7353 26.9548 86.3792 26.9548H84.0762C82.8213 26.9548 81.7423 26.5178 80.8426 25.6422C79.9429 24.7665 79.4915 23.7199 79.4915 22.5006V11.3342H84.0762V22.5006C84.0762 23.1007 84.3012 23.6201 84.7494 24.0587C85.1976 24.4973 85.7403 24.7174 86.3792 24.7174C87.0181 24.7174 87.5609 24.4973 88.0091 24.0587C88.4573 23.6201 88.6822 23.1007 88.6822 22.5006V11.3342H93.267Z" fill="#0D517F"/>
<path d="M99.6805 26.9532H95.0957V11.3326H99.6805V15.8074C99.8598 14.3158 100.332 13.1979 101.102 12.4521C101.869 11.7063 102.93 11.3326 104.286 11.3326H106.568V15.8074H101.983C101.353 15.8074 100.81 16.0259 100.359 16.4614C99.907 16.8968 99.6805 17.4178 99.6805 18.0242V26.9532Z" fill="#0D517F"/>
<path d="M119.891 20.2632H110.7V22.5006C110.7 23.1007 110.925 23.6201 111.373 24.0587C111.821 24.4973 112.364 24.7174 113.003 24.7174H115.306C116.827 24.7174 117.588 23.978 117.588 22.5006H119.891C119.532 25.4696 118.003 26.9548 115.306 26.9548H110.7C109.445 26.9548 108.366 26.5178 107.466 25.6422C106.567 24.7665 106.115 23.7199 106.115 22.5006V15.809C106.115 14.5755 106.567 13.521 107.471 12.6469C108.376 11.7728 109.452 11.3342 110.7 11.3342H115.306C116.561 11.3342 117.64 11.7744 118.54 12.6564C119.439 13.5384 119.891 14.5898 119.891 15.809V20.2632ZM110.7 18.0258H115.306V15.809C115.306 15.1962 115.078 14.6689 114.623 14.2303C114.167 13.7917 113.627 13.5716 113.003 13.5716C112.379 13.5716 111.83 13.7917 111.378 14.2303C110.927 14.6689 110.7 15.1962 110.7 15.809V18.0258Z" fill="#0D517F"/>
<path d="M0.0865639 13.3055C12.5061 10.3571 28.9579 6.48405 41.4263 3.5832C42.5802 3.25068 44.1465 3.26018 44.66 4.54593C45.043 5.61791 44.5654 6.65506 44.1824 7.61938C43.7749 8.74362 43.6494 10.1402 44.4285 11.0982C45.4863 12.2968 47.4568 12.0847 48.909 11.7743C51.7156 11.1394 54.3413 9.72218 56.8594 8.36042C60.8282 6.26237 64.5931 3.92839 68.6841 2.01718C69.8185 1.53581 70.9968 1.00061 72.3464 1.00853C74.3804 1.05762 75.0699 2.84532 74.9183 4.54593C74.8205 6.05177 74.4326 7.43728 74.3299 8.86237C74.2826 9.50367 74.3234 10.1196 74.4864 10.5202C74.8759 11.4687 76.1048 11.4212 77.1104 11.3864C79.9529 11.1425 82.7057 10.118 85.3885 9.17748C90.1754 7.51487 95.3078 5.62741 100.122 3.99331C106.479 1.93009 113.098 -0.302555 119.893 0.0331338C119.956 0.0363007 120.003 0.0901375 120 0.150308C119.997 0.207312 119.948 0.253231 119.891 0.254815C114.675 0.535083 109.726 2.20878 104.883 3.97906C98.6295 6.32096 92.4523 8.90354 86.1936 11.2534C83.0464 12.4077 77.9417 14.4408 74.6119 13.4369C72.3953 12.7513 71.815 10.6992 72.04 8.6882C72.1133 7.89014 72.2567 7.1491 72.3936 6.43338C72.5175 5.68917 73.0717 3.50561 72.4931 3.10025C70.7214 2.6268 63.7016 6.77541 61.6431 7.77614C57.3908 9.91061 51.6504 13.5731 46.8391 13.4955C44.9794 13.4623 43.2306 12.6215 42.6536 10.8005C42.2706 9.54959 42.4515 8.32084 42.8948 7.15543C43.1165 6.58539 43.7782 5.33131 43.3072 4.82461C43.079 4.60135 42.3472 4.6251 41.9902 4.72802L41.7164 4.78661C32.7652 6.6994 17.8455 9.81719 8.89595 11.7015L0.138719 13.524C0.0767847 13.5367 0.0164799 13.4987 0.00344107 13.4385C-0.0095978 13.3799 0.027889 13.3213 0.0881937 13.3071L0.0865639 13.3055Z" fill="#0D517F"/>
</g>
<defs>
<clipPath id="clip0_4_3260">
<rect width="120" height="33.6449" fill="white"/>
</clipPath>
</defs>
</svg>
