<svg id="Layer_1" data-name="Layer 1" xmlns="http://www.w3.org/2000/svg" width="169.3999mm" height="151.1916mm" viewBox="0 0 480.1888 428.5745">
  <defs>
    <style>
      .cls-1 {
        fill: #202a44;
      }

      .cls-2 {
        fill: #ffc300;
      }

      .cls-3 {
        fill: #3874fd;
      }
    </style>
  </defs>
  <path class="cls-1" d="M223.1625,427.7937a3.0916,3.0916,0,0,1,.421,1.3491,2.3675,2.3675,0,0,1-1.349,1.9379l-7.248,5.057a2.7181,2.7181,0,0,1-1.434.4221c-1.096,0-1.853-1.012-2.275-1.6011-1.771-2.445-3.961-4.1309-7.249-4.1309a8.5551,8.5551,0,0,0,0,17.11c3.288,0,5.478-1.686,7.249-4.131.422-.589,1.179-1.6,2.275-1.6a2.7154,2.7154,0,0,1,1.434.421l7.248,5.0571a2.3661,2.3661,0,0,1,1.349,1.9379,3.0951,3.0951,0,0,1-.421,1.349c-3.205,6.659-11.632,10.537-19.977,10.537-13.316,0-22.335-9.862-22.335-21.915,0-12.4749,9.778-22.3359,22.757-22.3359,8.174,0,16.35,3.8769,19.555,10.5359" transform="translate(-180.8505 -83.3505)"></path>
  <path class="cls-1" d="M257.89,467.9973c-1.771,5.901-4.384,8.936-7.586,10.958a21.018,21.018,0,0,1-10.79,2.951,20.265,20.265,0,0,1-9.777-2.447,14.9593,14.9593,0,0,1-3.033-2.19,2.6925,2.6925,0,0,1-.844-1.77,3.3423,3.3423,0,0,1,.675-1.771l4.551-6.741a2.216,2.216,0,0,1,1.687-.928,3.2664,3.2664,0,0,1,2.191.843,8.96,8.96,0,0,0,4.804,1.77,4.8577,4.8577,0,0,0,4.804-3.288l1.601-5.141h-7.67a2.6254,2.6254,0,0,1-2.528-2.022l-10.704-36.413a7.3338,7.3338,0,0,1-.338-1.769c0-.843.591-1.517,1.771-1.517h12.474c1.095,0,1.77,1.011,2.024,2.022l6.91,28.656h1.096l7.248-28.656c.253-1.011.928-2.022,2.024-2.022h11.715c1.18,0,1.77.674,1.77,1.517a7.4,7.4,0,0,1-.336,1.769Z" transform="translate(-180.8505 -83.3505)"></path>
  <path class="cls-1" d="M297.9271,448.0219a8.5987,8.5987,0,1,0-8.429-8.597,8.49,8.49,0,0,0,8.429,8.597m-8.512-26.634c2.191-2.529,6.32-4.131,11.125-4.131,10.873,0,20.481,8.2611,20.481,21.9981,0,13.7389-9.608,22.2529-20.566,22.2529-3.792,0-8.765-1.011-11.04-3.877v.674a1.9077,1.9077,0,0,1-1.939,1.939H276.94a1.9069,1.9069,0,0,1-1.938-1.939V403.182a1.9067,1.9067,0,0,1,1.938-1.9381h10.536a1.9613,1.9613,0,0,1,1.939,1.9381Z" transform="translate(-180.8505 -83.3505)"></path>
  <path class="cls-1" d="M338.7232,434.4519h13.822c-.59-3.371-3.708-5.2259-6.91-5.2259s-6.322,1.8549-6.912,5.2259m15.003,10.536c.421-.59,1.179-1.602,2.275-1.602a2.7154,2.7154,0,0,1,1.434.421l7.163,4.469a2.145,2.145,0,0,1,1.349,1.853,3.099,3.099,0,0,1-.421,1.349c-3.034,6.405-11.042,10.03-19.47,10.03-13.738,0-22.335-9.693-22.335-21.83,0-12.475,9.186-22.421,22.082-22.421,13.317,0,20.902,10.621,20.902,20.819v1.77c0,1.18-.421,2.444-2.275,2.444h-26.043c.251,3.794,3.202,6.828,7.753,6.828a9.1721,9.1721,0,0,0,7.586-4.13" transform="translate(-180.8505 -83.3505)"></path>
  <path class="cls-1" d="M385.3354,458.4732a1.9544,1.9544,0,0,1-2.024,1.77h-10.619a1.9065,1.9065,0,0,1-1.939-1.939V420.46a1.9071,1.9071,0,0,1,1.939-1.939h10.029a1.9559,1.9559,0,0,1,2.024,1.771v2.359c2.528-3.539,7.08-4.888,10.449-4.888h2.362c.928,0,2.276.337,2.276,2.529v10.367a2.4208,2.4208,0,0,1-2.614,2.613h-4.131c-5.562,0-7.752,1.432-7.752,6.238Z" transform="translate(-180.8505 -83.3505)"></path>
  <path class="cls-1" d="M422.4213,417.2573c8.597,0,13.822,2.95,16.098,4.72,1.18.928,1.433,1.349,1.433,1.9391a3.5949,3.5949,0,0,1-.674,1.77l-3.54,5.9a1.6186,1.6186,0,0,1-1.519.8441,5.1975,5.1975,0,0,1-2.78-1.0131,24.4277,24.4277,0,0,0-9.861-2.611c-2.53,0-4.89.7581-4.89,2.696,0,.8431.507,1.686,2.109,2.1921,5.731,1.8529,21.998.4219,21.998,13.6539,0,7.838-5.732,14.245-19.387,14.245-8.176,0-14.496-2.277-18.289-5.227-1.18-.927-1.517-1.432-1.517-2.445,0-.927.253-1.349,1.096-2.443l3.877-5.227a1.6471,1.6471,0,0,1,1.433-.674c1.347,0,2.023,1.013,3.962,2.107a18.8583,18.8583,0,0,0,9.27,2.614c2.696,0,4.973-.675,4.973-2.361,0-5.226-23.262.169-23.262-15.93,0-9.187,7.585-14.75,19.47-14.75" transform="translate(-180.8505 -83.3505)"></path>
  <path class="cls-1" d="M474.9328,439.4245a8.43,8.43,0,1,0-8.429,8.512,8.4905,8.4905,0,0,0,8.429-8.512m14.665.085c0,12.221-10.282,21.998-23.094,21.998s-23.095-9.777-23.095-21.998c0-12.307,10.284-22.253,23.095-22.253s23.094,9.946,23.094,22.253" transform="translate(-180.8505 -83.3505)"></path>
  <path class="cls-1" d="M507.7206,440.4357c0,5.227,2.19,8.598,7.416,8.598,4.552,0,7.923-2.614,7.923-7.755v-20.987a1.9544,1.9544,0,0,1,2.024-1.77h10.619a1.9085,1.9085,0,0,1,1.939,1.94v37.843a1.9077,1.9077,0,0,1-1.939,1.939h-10.619a1.9546,1.9546,0,0,1-2.024-1.771v-1.516c-2.613,2.528-5.648,4.551-11.716,4.551-11.631,0-18.205-7.501-18.205-18.795v-22.421a1.9545,1.9545,0,0,1,2.022-1.77h10.536a1.9558,1.9558,0,0,1,2.024,1.77Z" transform="translate(-180.8505 -83.3505)"></path>
  <path class="cls-1" d="M557.6194,458.4732a1.9544,1.9544,0,0,1-2.024,1.77h-10.619a1.9065,1.9065,0,0,1-1.939-1.939V420.46a1.9071,1.9071,0,0,1,1.939-1.939h10.029a1.955,1.955,0,0,1,2.023,1.771v2.359c2.529-3.539,7.081-4.888,10.45-4.888h2.362c.928,0,2.276.337,2.276,2.529v10.367a2.4208,2.4208,0,0,1-2.614,2.613h-4.131c-5.562,0-7.752,1.432-7.752,6.238Z" transform="translate(-180.8505 -83.3505)"></path>
  <path class="cls-1" d="M616.1135,427.7937a3.0943,3.0943,0,0,1,.422,1.3491,2.3675,2.3675,0,0,1-1.349,1.9379l-7.249,5.057a2.7181,2.7181,0,0,1-1.434.4221c-1.094,0-1.853-1.012-2.275-1.6011-1.769-2.445-3.961-4.1309-7.248-4.1309a8.5551,8.5551,0,0,0,0,17.11c3.287,0,5.479-1.686,7.248-4.131.422-.589,1.181-1.6,2.275-1.6a2.7154,2.7154,0,0,1,1.434.421l7.249,5.0571a2.3661,2.3661,0,0,1,1.349,1.9379,3.0978,3.0978,0,0,1-.422,1.349c-3.203,6.659-11.631,10.537-19.976,10.537-13.317,0-22.336-9.862-22.336-21.915,0-12.4749,9.778-22.3359,22.757-22.3359,8.176,0,16.352,3.8769,19.555,10.5359" transform="translate(-180.8505 -83.3505)"></path>
  <path class="cls-1" d="M633.0573,434.4519h13.824c-.591-3.371-3.711-5.2259-6.912-5.2259-3.203,0-6.322,1.8549-6.912,5.2259m15.003,10.536c.422-.59,1.179-1.602,2.275-1.602a2.7154,2.7154,0,0,1,1.434.421l7.163,4.469a2.145,2.145,0,0,1,1.349,1.853,3.11,3.11,0,0,1-.42,1.349c-3.035,6.405-11.043,10.03-19.471,10.03-13.738,0-22.336-9.693-22.336-21.83,0-12.475,9.187-22.421,22.084-22.421,13.316,0,20.901,10.621,20.901,20.819v1.77c0,1.18-.421,2.444-2.275,2.444h-26.043c.251,3.794,3.201,6.828,7.753,6.828a9.1707,9.1707,0,0,0,7.586-4.13" transform="translate(-180.8505 -83.3505)"></path>
  <path class="cls-1" d="M427.3451,511.0805c-.084.295-.168.422-.465.422h-3.888c-.295,0-.379-.127-.465-.422l-10.311-28.737c-.084-.297.043-.422.338-.422h3.297c.296,0,.423.125.507.422l8.579,24.933,8.579-24.933c.084-.297.211-.422.507-.422h3.297c.295,0,.422.125.337.422Z" transform="translate(-180.8505 -83.3505)"></path>
  <path class="cls-1" d="M441.8424,490.7111c0-.297.125-.424.422-.424h2.451c.296,0,.423.127.423.424V511.08c0,.296-.127.423-.423.423h-2.451c-.297,0-.422-.127-.422-.423Zm-.592-8.368c0-.297.127-.422.422-.422h3.634c.297,0,.422.125.422.422v3.634c0,.297-.125.422-.422.422h-3.634c-.295,0-.422-.125-.422-.422Z" transform="translate(-180.8505 -83.3505)"></path>
  <path class="cls-1" d="M458.3638,511.9246c-4.945,0-8.917-2.916-8.917-6.888a.379.379,0,0,1,.424-.422h2.704c.296,0,.38.126.422.422.338,2.451,2.324,3.761,5.494,3.761,2.831,0,4.903-.887,4.903-3.085s-1.861-2.959-6.171-3.634c-5.071-.803-7.225-2.451-7.225-6.17,0-3.888,3.548-6.043,8.028-6.043,4.734,0,7.649,2.409,8.157,6.085a.3791.3791,0,0,1-.422.423h-2.367c-.297,0-.338-.127-.423-.423-.633-2.07-2.789-2.959-5.072-2.959-2.704,0-4.605.93-4.605,2.832,0,2.072,1.69,2.79,5.958,3.55,4.056.719,7.607,1.902,7.607,5.917,0,4.269-3.551,6.634-8.495,6.634" transform="translate(-180.8505 -83.3505)"></path>
  <path class="cls-1" d="M479.6629,501.276c-3,0-5.325,1.099-5.325,3.718,0,2.452,1.691,3.804,4.522,3.804a6.2384,6.2384,0,0,0,6.55-6.593,17.08,17.08,0,0,0-5.747-.929m-7.649-4.691c-.17,0-.295-.084-.295-.254a1.7957,1.7957,0,0,1,.041-.422c.846-3.212,3.593-6.044,8.538-6.044,4.901,0,8.409,2.959,8.409,7.396v10.185a6.1693,6.1693,0,0,0,.718,3.634c.043.085.084.127.084.212,0,.168-.126.211-.337.211h-3.338c-.297,0-.424-.127-.424-.423v-2.198a8.4744,8.4744,0,0,1-6.93,3.043c-3.677,0-7.607-2.197-7.607-6.719,0-4.692,3.803-7.057,8.579-7.057a21.9589,21.9589,0,0,1,5.958.93v-1.184c0-3.169-1.859-4.903-5.112-4.903a4.9611,4.9611,0,0,0-4.988,3.212.5314.5314,0,0,1-.591.381Z" transform="translate(-180.8505 -83.3505)"></path>
  <path class="cls-1" d="M515.036,481.4975c6.382,0,10.016,3.931,10.143,8.241,0,.296-.127.422-.424.422h-2.704c-.295,0-.422-.126-.422-.422-.169-2.916-3.043-4.86-6.593-4.86-3.591,0-6.382,1.606-6.382,4.352,0,3.17,3.382,4.353,7.819,5.537,5.409,1.437,9.678,3.423,9.678,8.114,0,6.086-4.522,9.043-10.904,9.043-6.128,0-10.903-3.802-10.903-9.381,0-.296.127-.422.422-.422h2.705c.297,0,.423.126.423.422.127,3.423,2.959,6.001,7.353,6.001,4.565,0,7.354-1.69,7.354-5.451,0-2.959-3.634-4.101-7.733-5.157-5.79-1.479-9.762-3.549-9.762-8.536,0-5.198,4.648-7.903,9.93-7.903" transform="translate(-180.8505 -83.3505)"></path>
  <path class="cls-1" d="M540.6453,508.7983c4.353,0,7.311-3.17,7.311-7.903s-2.958-7.903-7.311-7.903-7.31,3.169-7.31,7.903,2.957,7.903,7.31,7.903m0-18.933c6.086,0,10.777,4.31,10.777,11.03s-4.691,11.029-10.777,11.029-10.776-4.31-10.776-11.029,4.691-11.03,10.776-11.03" transform="translate(-180.8505 -83.3505)"></path>
  <path class="cls-1" d="M375.8356,398.5706h2.452a.422.422,0,0,1,.422.422V427.73a.423.423,0,0,1-.423.423h-2.45a.423.423,0,0,1-.423-.423v-28.737A.422.422,0,0,1,375.8356,398.5706Z"></path>
  <path class="cls-1" d="M582.85,511.0805c0,.295-.127.422-.422.422h-2.452c-.295,0-.422-.127-.422-.422v-2.409a8.8429,8.8429,0,0,1-7.015,3.253c-4.438,0-7.354-2.746-7.354-7.69v-13.524c0-.296.127-.423.423-.423h2.451c.295,0,.422.127.422.423v13.016c0,3.423,1.775,5.071,4.818,5.071,3.55,0,6.255-2.577,6.255-7.692v-10.395c0-.296.127-.423.422-.423h2.452c.295,0,.422.127.422.423Z" transform="translate(-180.8505 -83.3505)"></path>
  <path class="cls-1" d="M602.0794,490.2874c.297,0,.423.127.423.423v2.282c0,.296-.126.423-.423.423h-7.015v11.791c0,2.365,1.1,3.591,3.339,3.591a10.6036,10.6036,0,0,0,4.015-.634.8021.8021,0,0,1,.295-.084c.211,0,.296.17.296.423v1.986c0,.38,0,.592-.338.719a12.8334,12.8334,0,0,1-4.521.717c-3.973,0-6.382-2.408-6.382-6.423v-12.086h-3.761c-.295,0-.422-.127-.422-.423V490.71c0-.296.127-.423.422-.423h3.761v-6.085c0-.295.127-.422.422-.422h2.452c.295,0,.422.127.422.422v6.085Z" transform="translate(-180.8505 -83.3505)"></path>
  <path class="cls-1" d="M607.8666,490.7111c0-.297.125-.424.422-.424h2.451c.296,0,.423.127.423.424V511.08c0,.296-.127.423-.423.423h-2.451c-.297,0-.422-.127-.422-.423Zm-.592-8.368c0-.297.127-.422.422-.422h3.634c.297,0,.422.125.422.422v3.634c0,.297-.125.422-.422.422h-3.634c-.295,0-.422-.125-.422-.422Z" transform="translate(-180.8505 -83.3505)"></path>
  <path class="cls-1" d="M626.5481,508.7983c4.353,0,7.311-3.17,7.311-7.903s-2.958-7.903-7.311-7.903-7.31,3.169-7.31,7.903,2.957,7.903,7.31,7.903m0-18.933c6.086,0,10.777,4.31,10.777,11.03s-4.691,11.029-10.777,11.029-10.776-4.31-10.776-11.029,4.691-11.03,10.776-11.03" transform="translate(-180.8505 -83.3505)"></path>
  <path class="cls-1" d="M641.5684,490.7108c0-.297.127-.423.423-.423h2.451c.295,0,.422.126.422.423v2.408a8.78,8.78,0,0,1,7.016-3.254c4.437,0,7.353,2.748,7.353,7.692v13.524c0,.295-.127.422-.422.422h-2.452c-.295,0-.422-.127-.422-.422v-13.017c0-3.424-1.775-5.072-4.818-5.072-3.55,0-6.255,2.578-6.255,7.692v10.397c0,.295-.127.422-.422.422h-2.451c-.296,0-.423-.127-.423-.422Z" transform="translate(-180.8505 -83.3505)"></path>
  <path class="cls-2" d="M311.3327,274.3438a15.7177,15.7177,0,1,1,14.544,9.73,15.73,15.73,0,0,1-14.544-9.73" transform="translate(-180.8505 -83.3505)"></path>
  <path class="cls-1" d="M471.0117,340.615a15.7166,15.7166,0,1,1,14.542,9.73,15.7251,15.7251,0,0,1-14.542-9.73" transform="translate(-180.8505 -83.3505)"></path>
  <path class="cls-1" d="M438.8439,359.5814a137.041,137.041,0,0,1-97.542-40.4039,15.73,15.73,0,1,1,22.246-22.245,105.79,105.79,0,0,0,75.296,31.19,15.73,15.73,0,0,1,0,31.459" transform="translate(-180.8505 -83.3505)"></path>
  <path class="cls-1" d="M514.1427,319.1778a15.73,15.73,0,1,1,11.122,4.6071,15.7285,15.7285,0,0,1-11.122-4.6071" transform="translate(-180.8505 -83.3505)"></path>
  <path class="cls-2" d="M311.3327,168.5882a15.7178,15.7178,0,1,0,14.544-9.73,15.73,15.73,0,0,0-14.544,9.73" transform="translate(-180.8505 -83.3505)"></path>
  <path class="cls-3" d="M471.0117,102.3171a15.7163,15.7163,0,1,0,14.542-9.73,15.7251,15.7251,0,0,0-14.542,9.73" transform="translate(-180.8505 -83.3505)"></path>
  <path class="cls-3" d="M438.8439,83.3505a137.0408,137.0408,0,0,0-97.542,40.4041A15.73,15.73,0,1,0,363.5479,146a105.79,105.79,0,0,1,75.296-31.19,15.73,15.73,0,0,0,0-31.4591" transform="translate(-180.8505 -83.3505)"></path>
  <path class="cls-3" d="M514.1427,123.7541a15.73,15.73,0,1,0,11.122-4.607,15.7286,15.7286,0,0,0-11.122,4.607" transform="translate(-180.8505 -83.3505)"></path>
  <path class="cls-2" d="M300.8981,221.4885v0Zm15.707-15.752a15.742,15.742,0,1,0,.022,0Z" transform="translate(-180.8505 -83.3505)"></path>
  <path class="cls-1" d="M385.1065,499.5442h9.637l-4.818-13.356Zm10.862,3.38h-12.086l-2.916,8.157c-.086.295-.17.422-.508.422h-2.831c-.295,0-.465-.127-.465-.422a.62.62,0,0,1,.043-.254l10.481-28.484c.084-.297.125-.422.422-.422h3.634c.296,0,.338.125.422.422l10.481,28.484a.62.62,0,0,1,.043.254c0,.295-.17.422-.465.422h-2.832c-.338,0-.422-.127-.507-.422Z" transform="translate(-180.8505 -83.3505)"></path>
</svg>